<?xml version="1.0" encoding="UTF-8"?>
<svg version="1.1" xmlns="http://www.w3.org/2000/svg" width="1024" height="1024">
<path d="M0 0 C1.26585937 0.19335938 2.53171875 0.38671875 3.8359375 0.5859375 C15.21828686 2.24214117 26.58748553 3.37536126 38.0703125 4.03515625 C38.78536453 4.07705015 39.50041656 4.11894405 40.23713684 4.16210747 C59.6454311 5.28058147 79.07461461 5.63420854 98.50876236 6.0047493 C103.62856875 6.10359548 108.74823114 6.20947963 113.86791992 6.31420898 C123.84277972 6.51691316 133.8177986 6.71040202 143.79290771 6.90039062 C148.36149297 6.98748099 152.9300239 7.07708962 157.49853516 7.16796875 C202.99463679 8.06889625 248.49798362 8.51203058 294 9 C293.2279909 13.73446394 291.82461514 16.13153864 288 19 C275.50848162 27.06233621 262.42641282 28.66975523 247.9140625 30.37304688 C236.20603612 31.85515403 225.56235711 34.85384265 215 40.125 C213.58393091 40.81632955 212.16727925 41.50646728 210.75 42.1953125 C210.10546875 42.51016602 209.4609375 42.82501953 208.796875 43.14941406 C206.56973701 44.2036734 204.30375959 45.12709109 202 46 C209.93092988 44.06284759 217.54026777 41.89484709 225.125 38.875 C231.97798741 36.16263854 238.64094457 34.73086509 246 34 C246 34.99 246 35.98 246 37 C244.0493696 38.40457069 242.0378065 39.72519709 240 41 C237.38173279 43.04344458 234.77646071 45.09684167 232.20703125 47.20117188 C223.53277639 54.06210451 213.98814716 57.1325916 203.375 59.8125 C202.18003906 60.12380859 200.98507812 60.43511719 199.75390625 60.75585938 C196.83835836 61.51390183 193.92059512 62.26169045 191 63 C193.52093298 62.688288 196.0417457 62.37565098 198.5625 62.0625 C199.61920898 61.93198242 199.61920898 61.93198242 200.69726562 61.79882812 C205.13911927 61.24615509 209.57074664 60.64605404 214 60 C212.69150423 63.5693777 211.12607526 66.52418566 208.9609375 69.64453125 C208.38085938 70.48564453 207.80078125 71.32675781 207.203125 72.19335938 C206.59984375 73.05767578 205.9965625 73.92199219 205.375 74.8125 C204.76398438 75.69615234 204.15296875 76.57980469 203.5234375 77.49023438 C202.01996525 79.66322161 200.51205266 81.83297876 199 84 C202.61939171 80.43306325 206.08835674 76.76523094 209.5 73 C213.9896838 68.04499883 218.54074635 63.17753222 223.5625 58.75 C224.12066406 58.24984375 224.67882812 57.7496875 225.25390625 57.234375 C227.16398128 55.88407587 228.71532318 55.4199406 231 55 C229.64809315 65.22231318 228.26131279 73.53135805 222 82 C221.35804688 82.93199219 220.71609375 83.86398437 220.0546875 84.82421875 C218.39395771 87.23463021 216.70894405 89.62365769 215 92 C215.70125 91.29875 216.4025 90.5975 217.125 89.875 C217.57746094 89.42511719 218.02992188 88.97523438 218.49609375 88.51171875 C219.5403339 87.46205398 220.57347976 86.40128152 221.59765625 85.33203125 C223.02861348 83.85185191 224.51152221 82.42232322 226 81 C226.66 81 227.32 81 228 81 C228.99 84.96 229.98 88.92 231 93 C231.02578125 91.27394531 231.0515625 89.54789063 231.078125 87.76953125 C231.76606777 56.03874808 231.76606777 56.03874808 243 45 C253.57582985 35.67404095 267.41507757 31.61160397 281 29 C280.35561576 32.36000351 279.07095855 34.74338002 277.25 37.625 C275.10495339 41.09598234 273.19047945 44.56596065 271.4375 48.25 C268.12584774 54.92521129 264.27957001 58.83553675 258.5 63.4375 C254.0818695 66.97319688 250.8395384 70.10424414 248 75 C248 75.99 248 76.98 248 78 C248.77150391 76.69675781 248.77150391 76.69675781 249.55859375 75.3671875 C252.1305979 71.51427771 255.41011068 68.91644189 259.0625 66.125 C259.68705078 65.62742187 260.31160156 65.12984375 260.95507812 64.6171875 C265.61071643 61 265.61071643 61 269 61 C268.77287641 71.32276723 268.44957005 80.48883725 264 90 C261.45115667 95.47529307 260.39232868 100.03389828 260 106 C260.24234375 105.26394531 260.4846875 104.52789063 260.734375 103.76953125 C264.2030323 93.67040211 264.2030323 93.67040211 268 90 C268.66 90 269.32 90 270 90 C270.36738281 91.32837891 270.36738281 91.32837891 270.7421875 92.68359375 C273.99866428 103.47488405 279.00499683 112.48948041 285 122 C284.54109375 120.9584375 284.0821875 119.916875 283.609375 118.84375 C276.27842572 101.85272696 269.85258222 82.66337999 274 64 C274.66 64 275.32 64 276 64 C277.515625 66.2734375 277.515625 66.2734375 279.25 69.375 C279.86488281 70.46039062 280.47976563 71.54578125 281.11328125 72.6640625 C282.04720703 74.31535156 282.04720703 74.31535156 283 76 C284.13903012 77.92071745 285.28417301 79.83783317 286.4375 81.75 C286.93121094 82.56984375 287.42492187 83.3896875 287.93359375 84.234375 C288.46146484 85.10835937 288.46146484 85.10835937 289 86 C288.57065572 81.13670026 286.931644 77.62117147 284.70947266 73.37670898 C279.77958222 63.92286343 276.72043239 56.20386763 279.69140625 45.51171875 C283.68565603 35.94118301 292.50331836 27.0675026 300 20 C300.33 20 300.66 20 301 20 C301.09796875 20.66644531 301.1959375 21.33289063 301.296875 22.01953125 C302.2970381 28.18432966 303.83063178 33.70993903 306.1953125 39.4921875 C307.08845687 42.27567627 307.38812826 44.09806425 307 47 C305.46875 49.67578125 305.46875 49.67578125 303.5 52.3125 C302.8503125 53.19550781 302.200625 54.07851563 301.53125 54.98828125 C300.77328125 55.98408203 300.77328125 55.98408203 300 57 C300.33 57.33 300.66 57.66 301 58 C301.55429687 57.4946875 302.10859375 56.989375 302.6796875 56.46875 C303.40414063 55.8190625 304.12859375 55.169375 304.875 54.5 C305.59429688 53.8503125 306.31359375 53.200625 307.0546875 52.53125 C309 51 309 51 311 51 C314.68852427 60.60408206 316.4952737 70.06031542 313 80 C311.17861701 83.89810005 309.09264574 87.64511975 306.97265625 91.38671875 C302.00929147 100.27092602 299.81111674 108.76801539 301 119 C302.32596194 122.5652613 303.99904967 125.76989447 306 129 C305.855625 128.43152344 305.71125 127.86304688 305.5625 127.27734375 C303.0188052 116.69627998 304.16213554 107.67572892 309.0859375 97.828125 C310.125 96.1875 310.125 96.1875 312 94 C312.66 94 313.32 94 314 94 C314.1959375 94.57105469 314.391875 95.14210938 314.59375 95.73046875 C316.57780842 101.10966161 319.00674298 105.74337552 322.125 110.5625 C325.44879866 115.77678637 327.17198859 119.89341583 328 126 C329.60408648 117.90827486 327.09524257 112.79683631 323 106.0625 C316.58895391 95.30205127 317.07038018 88.14880377 320 76.25 C320.64150676 73.82513714 321.31410794 71.4128703 322 69 C322.99 69.33 323.98 69.66 325 70 C325 70.66 325 71.32 325 72 C325.66 72 326.32 72 327 72 C328.18772164 73.42526597 329.37021915 74.85526887 330.5234375 76.30859375 C332.00734659 78.00841554 333.53893011 79.29860851 335.3125 80.6875 C342.34956922 86.55429075 347.36528194 94.27249643 350 103 C350.73859051 94.32156147 347.01261413 87.77342226 341.75390625 81.078125 C339.80620628 78.7703825 337.78793749 76.54093253 335.75 74.3125 C325.21869893 62.68381966 309 43.7588877 309 27 C325.24880427 33.16765788 344.68035671 41.24582887 352.22949219 57.62182617 C356.00372273 66.127458 359.10008108 74.08352191 360.125 83.375 C360.21136719 84.11105469 360.29773438 84.84710937 360.38671875 85.60546875 C360.59681885 87.40299182 360.79920767 89.20141342 361 91 C361.33 88.03 361.66 85.06 362 82 C362.66 82 363.32 82 364 82 C365.375 83.6171875 365.375 83.6171875 367 85.875 C371.17960489 91.42727513 376.01373836 96.1778201 381 101 C381.66 101.66 382.32 102.32 383 103 C382.28714844 101.97261719 381.57429688 100.94523438 380.83984375 99.88671875 C357 65.43795695 357 65.43795695 357 56 C362.25124645 56.5643863 366.24678487 58.30990225 370.875 60.6875 C371.58462891 61.04908203 372.29425781 61.41066406 373.02539062 61.78320312 C383.58275815 67.27070326 391.66576989 74.63749829 399 84 C391.97611699 67.72111821 381.18449688 60.62652058 365.8828125 52.921875 C358.12348851 48.98277342 350.91709259 44.78583596 343.9375 39.5625 C343.24027832 39.04204102 342.54305664 38.52158203 341.82470703 37.98535156 C340.17245403 36.71206337 338.57941449 35.36259042 337 34 C337 33.34 337 32.68 337 32 C357.87754008 30.17282873 357.87754008 30.17282873 364.79272461 35.42675781 C366.34168018 36.78331881 367.85935362 38.16379986 369.359375 39.57421875 C373.41945036 43.30396254 377.42686624 45 383 45 C382.35933594 44.70867188 381.71867187 44.41734375 381.05859375 44.1171875 C375.4606158 41.46419646 370.16328044 38.70092261 366 34 C366 33.34 366 32.68 366 32 C372.93 31.34 379.86 30.68 387 30 C380.58187466 29.35818747 374.39781029 28.84227834 367.984375 28.75390625 C366.30338036 28.72096038 364.6223909 28.68774886 362.94140625 28.65429688 C360.35078501 28.6071547 357.76018365 28.56265512 355.16943359 28.52319336 C320.89838186 27.97822425 320.89838186 27.97822425 312.3125 19.29296875 C309.7172046 15.90876253 308.78676389 13.1926403 308 9 C333.7631977 8.33287363 359.52775195 7.85907516 385.296875 7.5 C386.02960695 7.48975422 386.76233891 7.47950844 387.51727486 7.46895218 C400.47246177 7.2878754 413.42772205 7.11225013 426.38299561 6.9375 C469.04366232 6.39846478 469.04366232 6.39846478 511.69960785 5.58776855 C513.28794456 5.55128462 514.87631776 5.51634187 516.46472931 5.48327637 C531.504619 5.16335758 546.42313109 3.85427758 561.38427734 2.34765625 C566.91663987 1.81571268 572.45667432 1.3991805 578 1 C577.44263252 32.04937193 557.503016 61.95072324 537 84 C536.51031738 84.52819336 536.02063477 85.05638672 535.51611328 85.60058594 C528.30054032 93.29434227 520.5167534 99.79920586 512 106 C511.05382812 106.71800781 510.10765625 107.43601562 509.1328125 108.17578125 C508.26398438 108.81902344 507.39515625 109.46226562 506.5 110.125 C505.7471875 110.68445313 504.994375 111.24390625 504.21875 111.8203125 C501.6218012 113.20108457 499.89980081 113.23484302 497 113 C497.66 111.68 498.32 110.36 499 109 C499.66 109 500.32 109 501 109 C501 108.34 501 107.68 501 107 C502.55240341 105.60674046 504.17029985 104.28619872 505.8125 103 C514.56553028 95.98180455 522.87458263 88.69835719 530 80 C530.80050781 79.02933594 531.60101562 78.05867187 532.42578125 77.05859375 C534.62595371 74.37937908 536.81682843 71.69307331 539 69 C538.29359375 69.5671875 537.5871875 70.134375 536.859375 70.71875 C520.99448634 83.37598358 504.75273719 95.12372818 487 105 C486.27119629 105.40959961 485.54239258 105.81919922 484.79150391 106.24121094 C448.71216375 126.38400228 408.75647128 138.14282541 368.25 145.25 C367.54385559 145.37533112 366.83771118 145.50066223 366.11016846 145.62979126 C343.94571139 149.52345985 322.01973785 150.35159956 299.56445312 150.31567383 C296.44874598 150.31105244 293.33343015 150.31794229 290.21777344 150.33618164 C270.60374211 150.44984185 251.46007139 149.79770776 232 147 C231.25339111 146.89531403 230.50678223 146.79062805 229.73754883 146.68276978 C225.82807753 146.12533951 221.94437794 145.47369229 218.0625 144.75 C216.92176025 144.54020508 215.78102051 144.33041016 214.60571289 144.11425781 C162.45711538 134.21926758 110.2487865 114.80074564 68 82 C67.42781738 81.56171875 66.85563477 81.1234375 66.26611328 80.671875 C54.95963469 71.96603275 44.90052447 62.26124985 35 52 C47.3095415 72.91671412 63.43575465 91.49340877 82.359375 106.70703125 C83.24363159 107.42862427 83.24363159 107.42862427 84.14575195 108.16479492 C85.32057627 109.12223112 86.50381653 110.06945195 87.69604492 111.00512695 C90.31829212 113.15300952 91.86196966 114.5546221 92.87890625 117.8359375 C92.93884766 118.90714844 92.93884766 118.90714844 93 120 C88.16559225 119.46181257 84.57623785 117.18973677 80.5625 114.625 C79.86237793 114.18164307 79.16225586 113.73828613 78.44091797 113.28149414 C68.29825335 106.74289755 59.02685844 99.1722171 50.18359375 90.97265625 C48.64414349 89.58191854 47.0502736 88.25029173 45.421875 86.96484375 C43.29805469 85.24180889 41.5804939 83.57250698 39.8125 81.5 C39.22082031 80.80648437 38.62914062 80.11296875 38.01953125 79.3984375 C37.35308594 78.60695313 36.68664062 77.81546875 36 77 C35.19949219 76.06414062 34.39898437 75.12828125 33.57421875 74.1640625 C16.50133826 54.00821877 -0.53515473 27.29289131 0 0 Z M32 48 C33 50 33 50 33 50 Z M298 60 C299 62 299 62 299 62 Z M245 83 C246 86 246 86 246 86 Z M232 97 C233 99 233 99 233 99 Z M351 109 C352 111 352 111 352 111 Z " fill="#4B220A" transform="translate(224,627)"/>
<path d="M0 0 C2 0.8203125 2 0.8203125 3.125 2.578125 C9.620405 20.15051532 15.63202673 41.88378687 8.375 60.15234375 C3.37716678 69.84984401 -5.70538411 79.47561453 -16.28125 82.875 C-17.1784375 83.18695313 -18.075625 83.49890625 -19 83.8203125 C-20.45160938 86.83811122 -20.45160938 86.83811122 -21 89.8203125 C-20.443125 89.9028125 -19.88625 89.9853125 -19.3125 90.0703125 C-13.18376853 92.05800919 -10.74860504 96.59220443 -7.91796875 101.9921875 C-7.61503906 102.59546875 -7.31210937 103.19875 -7 103.8203125 C-5.34409595 100.76626305 -4.1634567 97.60546227 -2.99658203 94.33789062 C2.5493937 78.88605504 8.558726 67.5410499 23.77734375 60.046875 C30.9784722 57.30608187 37.89666088 56.5228853 45.55859375 56.58984375 C46.42895767 56.59030197 47.29932159 56.59076019 48.19606018 56.5912323 C50.01703269 56.59422976 51.83800322 56.60203979 53.65893555 56.61450195 C56.45435574 56.63292358 59.2494469 56.63501013 62.04492188 56.63476562 C63.82031538 56.63967569 65.59570664 56.64550176 67.37109375 56.65234375 C68.20748886 56.65345657 69.04388397 56.6545694 69.90562439 56.65571594 C75.76774314 56.70418407 75.76774314 56.70418407 78 57.8203125 C77.53108417 64.75639748 76.35896136 71.11829734 74.3125 77.7578125 C73.90994995 79.06758057 73.90994995 79.06758057 73.49926758 80.40380859 C69.21954681 93.84721093 61.63075295 107.00097368 48.81640625 114.015625 C41.70889629 116.94731888 34.61595615 117.98628848 27 118.8203125 C27.33773438 119.52542969 27.67546875 120.23054688 28.0234375 120.95703125 C29.12624299 124.19045696 29.03101482 126.26288952 28.625 129.6328125 C28.51414062 130.60863281 28.40328125 131.58445312 28.2890625 132.58984375 C28.19367188 133.32589844 28.09828125 134.06195313 28 134.8203125 C29.546875 134.975 29.546875 134.975 31.125 135.1328125 C38.72177304 136.48062707 43.15594944 140.06210284 47.75 146.1328125 C50.23143571 151.46789929 50.5032221 155.94780408 48.875 161.5078125 C47.33215012 165.57088323 45.40810391 168.04627444 42 170.8203125 C41.154375 171.5421875 40.30875 172.2640625 39.4375 173.0078125 C34.51106736 175.60538607 29.48349123 176.1459673 24 176.8203125 C24.03480469 177.40039062 24.06960938 177.98046875 24.10546875 178.578125 C24.2868618 183.81261014 24.08437065 187.38652969 21 191.8203125 C14.04358176 198.95741693 7.97351359 201.68327186 -2 201.8203125 C-7.43686155 201.21621677 -11.76495946 199.28534567 -16 195.8203125 C-19.83113 190.8501979 -21.15345231 187.25506934 -21.0625 181.0703125 C-21.05347656 180.27109375 -21.04445313 179.471875 -21.03515625 178.6484375 C-21.01775391 177.74351562 -21.01775391 177.74351562 -21 176.8203125 C-21.99 176.8203125 -22.98 176.8203125 -24 176.8203125 C-24.89434157 178.22484893 -25.76493192 179.64453119 -26.625 181.0703125 C-27.11226563 181.85921875 -27.59953125 182.648125 -28.1015625 183.4609375 C-29.26935532 185.76996851 -29.26935532 185.76996851 -28.2734375 187.9296875 C-27.85320312 188.55359375 -27.43296875 189.1775 -27 189.8203125 C-24.94835649 192.89777776 -24.28051353 194.92884386 -24.35546875 198.62890625 C-25.7341433 203.31639973 -30.19885652 206.05373101 -34 208.8203125 C-35.61455078 209.68076172 -35.61455078 209.68076172 -37.26171875 210.55859375 C-40.35858018 212.63684541 -40.35858018 212.63684541 -40.76171875 216.47265625 C-40.77644752 217.90117997 -40.74954753 219.33056093 -40.6875 220.7578125 C-40.66751953 221.51199463 -40.64753906 222.26617676 -40.62695312 223.04321289 C-40.03651271 234.87078517 -35.20508115 244.37054702 -27 252.8203125 C-26.25878906 253.36429688 -25.51757812 253.90828125 -24.75390625 254.46875 C-23.88572266 255.13777344 -23.88572266 255.13777344 -23 255.8203125 C-23 256.4803125 -23 257.1403125 -23 257.8203125 C-32.75179759 258.48145132 -42.04603455 256.39374693 -50 250.5078125 C-51.36569519 249.31470516 -52.70285337 248.08760848 -54 246.8203125 C-54.76957031 246.08748047 -54.76957031 246.08748047 -55.5546875 245.33984375 C-60.38578159 239.7797976 -60.88599931 231.8575364 -62 224.8203125 C-62.69609375 225.36171875 -62.69609375 225.36171875 -63.40625 225.9140625 C-72.01509939 231.69612552 -81.79254385 230.8331846 -91.578125 229.05078125 C-99.50959505 227.43595073 -107.25526612 225.28797807 -114.91015625 222.65234375 C-124.60548296 220.04159206 -134.57215547 220.86840987 -144.5 221.1953125 C-146.14932018 221.24512603 -147.79865306 221.29452063 -149.44799805 221.34350586 C-162.63566791 221.7432499 -175.81870607 222.24876067 -189 222.8203125 C-188.61503531 228.77569308 -188.22411852 234.73064531 -187.828125 240.68530273 C-187.69472727 242.70310374 -187.56284325 244.72100549 -187.43261719 246.73901367 C-184.67513773 289.4057054 -176.4620802 329.99942889 -163.10173035 370.60597229 C-162.46000991 372.55719071 -161.82121395 374.50934746 -161.18286133 376.46166992 C-160.36597761 378.95171598 -159.54057562 381.43898708 -158.70581055 383.9230957 C-158.3375415 385.04288818 -157.96927246 386.16268066 -157.58984375 387.31640625 C-157.25847412 388.30825928 -156.92710449 389.3001123 -156.58569336 390.32202148 C-156 392.8203125 -156 392.8203125 -157 395.8203125 C-158.87451172 395.51049805 -158.87451172 395.51049805 -161 394.8203125 C-162.57543365 392.43264165 -163.85799508 390.17940658 -165.125 387.6328125 C-165.50897949 386.88322266 -165.89295898 386.13363281 -166.28857422 385.36132812 C-170.76735654 376.50124605 -174.87478298 367.46473722 -178.87158203 358.37890625 C-179.8571582 356.14419439 -180.86197822 353.91944056 -181.87109375 351.6953125 C-197.42672235 316.59565933 -206.17237537 274.95995286 -208 236.8203125 C-208.18213719 234.19493495 -208.3696289 231.56992333 -208.5625 228.9453125 C-208.70833333 226.90364583 -208.85416667 224.86197917 -209 222.8203125 C-209.7734375 222.60117187 -210.546875 222.38203125 -211.34375 222.15625 C-218.31397289 220.03412769 -223.58615081 217.69734542 -229 212.8203125 C-229.63164062 212.28019531 -230.26328125 211.74007812 -230.9140625 211.18359375 C-241.3030171 201.64313942 -248.08314097 188.61964462 -253.98486328 175.99072266 C-254.67856363 174.50755862 -255.38045106 173.0282035 -256.08935547 171.55224609 C-267.56821266 147.6333953 -275.51309822 121.76276918 -281 95.8203125 C-288.83549114 117.72248654 -291.56112786 141.79006141 -294 164.8203125 C-294.08720306 165.62119293 -294.17440613 166.42207336 -294.26425171 167.2472229 C-295.79816643 181.56359163 -296.36422328 195.73877508 -296.3125 210.1328125 C-296.31100952 211.16880585 -296.30951904 212.20479919 -296.3079834 213.27218628 C-296.24074297 239.45405228 -294.28396709 265.13100007 -289 290.8203125 C-288.71697021 292.26374023 -288.71697021 292.26374023 -288.42822266 293.73632812 C-283.04438548 320.88039172 -274.30830421 348.00852195 -262 372.8203125 C-261.36163937 374.15676907 -260.7248927 375.49399788 -260.08984375 376.83203125 C-255.77647636 385.79789513 -250.89183367 394.41096611 -245.86010742 402.99194336 C-245.1095105 404.27983765 -245.1095105 404.27983765 -244.34375 405.59375 C-243.89193359 406.36122559 -243.44011719 407.12870117 -242.97460938 407.91943359 C-242 409.8203125 -242 409.8203125 -242 411.8203125 C-241.34 411.8203125 -240.68 411.8203125 -240 411.8203125 C-240 412.4803125 -240 413.1403125 -240 413.8203125 C-244.50305906 413.43616528 -246.80298384 410.24053491 -249.625 407.0703125 C-250.41777344 406.19076904 -250.41777344 406.19076904 -251.2265625 405.29345703 C-289.97665151 361.78111249 -309.27213907 304.7263136 -317 247.8203125 C-317.12004395 246.95051758 -317.24008789 246.08072266 -317.36376953 245.18457031 C-323.19775359 200.4428684 -318.85110145 153.42926312 -308 109.8203125 C-307.82001465 109.08941406 -307.6400293 108.35851562 -307.45458984 107.60546875 C-305.05042822 97.93094046 -302.322315 88.36191733 -299.4375 78.8203125 C-299.15672607 77.88936768 -298.87595215 76.95842285 -298.58666992 75.99926758 C-293.50253826 59.41788087 -286.93484221 45.43507132 -276 31.8203125 C-275.41347656 31.0675 -274.82695312 30.3146875 -274.22265625 29.5390625 C-269.86137746 24.20290963 -264.80943391 20.48141954 -259 16.8203125 C-258.25621094 16.34464844 -257.51242187 15.86898438 -256.74609375 15.37890625 C-244.89322416 8.27566598 -230.98603276 6.83209225 -217.52734375 9.51171875 C-200.12029545 14.87982784 -188.89462412 26.51498393 -180 41.8203125 C-179.56816406 42.52929688 -179.13632813 43.23828125 -178.69140625 43.96875 C-171.22402051 57.27638684 -171.3493644 72.2329955 -171.5 87.0078125 C-171.50420959 88.03011963 -171.50841919 89.05242676 -171.51275635 90.10571289 C-171.60619598 109.55780062 -173.3042817 128.57493121 -176 147.8203125 C-176.38178295 150.65309357 -176.75730662 153.48669351 -177.1328125 156.3203125 C-177.42183271 158.48698481 -177.71087868 160.65365368 -178 162.8203125 C-177.38358643 162.92988281 -176.76717285 163.03945313 -176.13208008 163.15234375 C-170.62417731 164.14162482 -165.12766541 165.17823173 -159.63671875 166.2578125 C-158.66897018 166.44778809 -158.66897018 166.44778809 -157.68167114 166.64160156 C-155.01955421 167.16432219 -152.3574895 167.68721833 -149.6965332 168.21582031 C-123.72770604 173.5979264 -123.72770604 173.5979264 -99 166.8203125 C-96.05868109 165.83987286 -94.17498335 165.70410048 -91.11328125 165.72265625 C-90.17548828 165.72587891 -89.23769531 165.72910156 -88.27148438 165.73242188 C-86.80678711 165.74499023 -86.80678711 165.74499023 -85.3125 165.7578125 C-84.32443359 165.76232422 -83.33636719 165.76683594 -82.31835938 165.77148438 C-79.87884526 165.78326947 -77.43945311 165.79972239 -75 165.8203125 C-75.35658691 165.2315332 -75.71317383 164.64275391 -76.08056641 164.03613281 C-80.66586255 156.19349618 -80.66586255 156.19349618 -80.375 151.5703125 C-80.32472656 150.38695312 -80.32472656 150.38695312 -80.2734375 149.1796875 C-79.98471293 146.68840688 -79.53006792 144.27079042 -79 141.8203125 C-79.55945313 142.036875 -80.11890625 142.2534375 -80.6953125 142.4765625 C-89.47283341 145.52470481 -99.29205335 146.76851751 -108.0625 143.0703125 C-111.35089259 141.34022535 -114.31823665 139.41556736 -117 136.8203125 C-117 136.1603125 -117 135.5003125 -117 134.8203125 C-117.66 134.8203125 -118.32 134.8203125 -119 134.8203125 C-123.76279039 128.58449416 -127.29161449 121.51412575 -130.640625 114.44921875 C-131.91640111 111.80275352 -131.91640111 111.80275352 -133.671875 109.59765625 C-135 107.8203125 -135 107.8203125 -135 105.8203125 C-121.89446012 98.64014969 -108.69909339 94.27821978 -93.65625 97.546875 C-87.74271555 99.34728277 -83.37650928 101.44380322 -79 105.8203125 C-78.29875 105.0778125 -77.5975 104.3353125 -76.875 103.5703125 C-70.02302249 97.01624706 -64.23732372 95.86190983 -55 94.8203125 C-56.74899743 91.71600341 -57.78714787 90.89229522 -61.22265625 89.73046875 C-63.12337891 89.31087891 -63.12337891 89.31087891 -65.0625 88.8828125 C-79.08700057 85.47371802 -90.08860193 78.5969187 -97.8203125 66.08203125 C-105.02769295 52.2639078 -103.23681816 37.65287038 -101.125 22.7578125 C-100.94874656 21.42779686 -100.77296257 20.09771893 -100.59765625 18.76757812 C-100.42363281 17.51525391 -100.24960937 16.26292969 -100.0703125 14.97265625 C-99.91320801 13.83820068 -99.75610352 12.70374512 -99.59423828 11.53491211 C-99 8.8203125 -99 8.8203125 -97 6.8203125 C-82.03838114 7.96899725 -62.48754642 18.95580456 -52.453125 29.953125 C-42.89626247 42.23317955 -41.22418857 53.7218286 -42 68.8203125 C-42.30776294 70.82440658 -42.63704653 72.82547519 -43 74.8203125 C-43.47973151 79.60976318 -43.69391402 82.75775666 -41 86.8828125 C-40.34 87.5221875 -39.68 88.1615625 -39 88.8203125 C-37.515 88.3253125 -37.515 88.3253125 -36 87.8203125 C-34.24660108 80.12966181 -35.68021808 74.87455549 -38.7734375 67.703125 C-42.6770499 58.52839267 -42.46228093 45.15024849 -39 35.8203125 C-34.60783407 25.48580444 -13.40742588 -1.20457342 0 0 Z M-5 14.8203125 C-4 17.8203125 -4 17.8203125 -4 17.8203125 Z M-6 17.8203125 C-5 19.8203125 -5 19.8203125 -5 19.8203125 Z M-7 19.8203125 C-7 20.8103125 -7 21.8003125 -7 22.8203125 C-7.66 22.8203125 -8.32 22.8203125 -9 22.8203125 C-9.27714844 23.79613281 -9.55429687 24.77195312 -9.83984375 25.77734375 C-10.205694 27.06251001 -10.57158136 28.34766571 -10.9375 29.6328125 C-11.29714844 30.89738281 -11.65679687 32.16195312 -12.02734375 33.46484375 C-12.64491261 35.59533232 -13.29854631 37.71595142 -14 39.8203125 C-16.31 35.5303125 -18.62 31.2403125 -21 26.8203125 C-21.33 27.4803125 -21.66 28.1403125 -22 28.8203125 C-21.25161027 30.53720659 -20.42524932 32.22044187 -19.5625 33.8828125 C-16.30712663 40.76328309 -16.10537438 46.47863824 -18 53.8203125 C-21.68144382 51.97959059 -22.76735619 47.30648735 -24.46484375 43.703125 C-25.79424856 41.20668543 -26.87622548 39.63344538 -29 37.8203125 C-28.43024012 42.24002129 -26.71139797 45.12688987 -24.375 48.8828125 C-20.62624457 55.57101974 -20.41359384 60.42152748 -22 67.8203125 C-23.32 67.4903125 -24.64 67.1603125 -26 66.8203125 C-25.773125 67.6040625 -25.54625 68.3878125 -25.3125 69.1953125 C-24.93971611 73.51960558 -25.94885271 76.42015492 -27.40625 80.453125 C-28.04959626 83.01804495 -27.86322548 84.35557658 -27 86.8203125 C-26.67386719 85.77230469 -26.34773438 84.72429687 -26.01171875 83.64453125 C-25.57079465 82.26547075 -25.12936168 80.88657288 -24.6875 79.5078125 C-24.47416016 78.81751953 -24.26082031 78.12722656 -24.04101562 77.41601562 C-22.00271451 71.11857786 -22.00271451 71.11857786 -19 68.8203125 C-19.66 68.8203125 -20.32 68.8203125 -21 68.8203125 C-19.40615555 63.09359231 -17.98369685 58.22876306 -12.99609375 54.6875 C-10.03467887 53.24000795 -7.09687596 51.94644921 -4 50.8203125 C-7.64160808 49.60644314 -8.33165469 50.152843 -11.6875 51.7578125 C-12.49574219 52.13808594 -13.30398438 52.51835937 -14.13671875 52.91015625 C-14.75160156 53.21050781 -15.36648438 53.51085937 -16 53.8203125 C-14.8415368 48.29763882 -13.62808101 44.08900328 -9.0625 40.53125 C-6.08808875 38.82657563 -3.11309524 37.25449002 0 35.8203125 C-0.66 35.4903125 -1.32 35.1603125 -2 34.8203125 C-4.25324159 35.81448258 -4.25324159 35.81448258 -6.625 37.2578125 C-7.44226563 37.73089844 -8.25953125 38.20398438 -9.1015625 38.69140625 C-10.04128906 39.25021484 -10.04128906 39.25021484 -11 39.8203125 C-10.18872921 37.69484291 -9.37594602 35.56995055 -8.5625 33.4453125 C-8.11003906 32.26195312 -7.65757812 31.07859375 -7.19140625 29.859375 C-6 26.8203125 -6 26.8203125 -5 24.8203125 C-5.27942455 23.14376521 -5.60828247 21.47423096 -6 19.8203125 C-6.33 19.8203125 -6.66 19.8203125 -7 19.8203125 Z M-89 21.8203125 C-88 23.8203125 -88 23.8203125 -88 23.8203125 Z M-88 23.8203125 C-87.67 25.4703125 -87.34 27.1203125 -87 28.8203125 C-87.99 29.1503125 -88.98 29.4803125 -90 29.8203125 C-89.05125 30.0471875 -88.1025 30.2740625 -87.125 30.5078125 C-84 31.8203125 -84 31.8203125 -82.9375 33.8828125 C-82.628125 34.8521875 -82.31875 35.8215625 -82 36.8203125 C-81.15040254 38.43807634 -80.27322251 40.04153251 -79.375 41.6328125 C-78.92898438 42.42300781 -78.48296875 43.21320313 -78.0234375 44.02734375 C-77.68570313 44.61902344 -77.34796875 45.21070313 -77 45.8203125 C-77.75925781 45.59214844 -78.51851562 45.36398437 -79.30078125 45.12890625 C-80.79158203 44.69771484 -80.79158203 44.69771484 -82.3125 44.2578125 C-83.79169922 43.82275391 -83.79169922 43.82275391 -85.30078125 43.37890625 C-88.08028339 42.56822959 -88.08028339 42.56822959 -91 43.8203125 C-83.88041756 46.64592827 -83.88041756 46.64592827 -76.4375 48.2578125 C-75.633125 48.4434375 -74.82875 48.6290625 -74 48.8203125 C-72.875 51.1328125 -72.875 51.1328125 -72 53.8203125 C-69.97959252 56.09222666 -69.97959252 56.09222666 -68 57.8203125 C-68.44171193 54.81667137 -68.98847823 52.83906361 -70.59375 50.2265625 C-72.48432834 45.64716163 -71.90444902 42.2530883 -71.1875 37.4453125 C-71.02411133 36.19814453 -71.02411133 36.19814453 -70.85742188 34.92578125 C-70.58810976 32.88837659 -70.29630807 30.85396643 -70 28.8203125 C-72.72106694 31.54137944 -72.60655572 33.66807561 -73.125 37.4453125 C-73.29257812 38.63382812 -73.46015625 39.82234375 -73.6328125 41.046875 C-73.75398438 41.96210938 -73.87515625 42.87734375 -74 43.8203125 C-74.66 43.8203125 -75.32 43.8203125 -76 43.8203125 C-76.2475 42.9746875 -76.495 42.1290625 -76.75 41.2578125 C-77.71577819 38.60192247 -78.63095031 36.63158216 -80.0625 34.2578125 C-82 30.8203125 -82 30.8203125 -82.4375 28.0078125 C-82.623125 27.2859375 -82.80875 26.5640625 -83 25.8203125 C-85.47636012 24.44564625 -85.47636012 24.44564625 -88 23.8203125 Z M-253 36.8203125 C-254.12921875 37.79291016 -254.12921875 37.79291016 -255.28125 38.78515625 C-262.48497952 45.42459363 -268.10854832 53.9872289 -269.23828125 63.9140625 C-270.47045375 103.86239183 -247.14805874 166.71059904 -220 195.8203125 C-207.71994054 207.57493118 -191.92218957 205.9603157 -175.79878235 205.92784691 C-171.93740454 205.9242296 -168.07615533 205.95021345 -164.21484375 205.97070312 C-159.35029687 205.9949529 -154.48618113 206.01071514 -149.62158203 205.99536133 C-145.64334387 205.98359012 -141.66614138 206.00136455 -137.68806458 206.03780556 C-136.19247154 206.04631035 -134.69677651 206.0445136 -133.20121765 206.0313015 C-122.31982129 205.9422701 -114.66262755 208.09880878 -105 212.8203125 C-102.36162204 213.76348911 -99.78740134 214.44932896 -97.0625 215.1328125 C-95.28552734 215.59107422 -95.28552734 215.59107422 -93.47265625 216.05859375 C-76.92875743 219.68745795 -67.02965152 215.02958408 -52.39257812 207.75683594 C-50.4806821 206.81075323 -48.56089567 205.88206812 -46.640625 204.953125 C-45.41614688 204.3474038 -44.19216899 203.74067007 -42.96875 203.1328125 C-41.86982422 202.59269531 -40.77089844 202.05257812 -39.63867188 201.49609375 C-36.93094885 199.77645914 -36.04183686 198.7997712 -35 195.8203125 C-38.08744934 193.76201294 -38.70531901 193.56501783 -42.1875 193.6328125 C-42.90292969 193.63925781 -43.61835938 193.64570312 -44.35546875 193.65234375 C-46.43482441 193.78441508 -48.50690259 194.03134481 -50.5703125 194.3203125 C-55.93427214 195.01662893 -61.28578553 195.00435651 -66.6875 195.0078125 C-67.70650391 195.02005859 -68.72550781 195.03230469 -69.77539062 195.04492188 C-70.76087891 195.04685547 -71.74636719 195.04878906 -72.76171875 195.05078125 C-73.64819092 195.05489014 -74.53466309 195.05899902 -75.44799805 195.06323242 C-78.27120584 194.79449696 -80.42817666 193.9870111 -83 192.8203125 C-81.99824355 190.08824947 -81.43060529 189.02772447 -78.76171875 187.7421875 C-75.98229792 186.81440346 -73.39864755 186.34428365 -70.5 185.9453125 C-65.99323005 185.16284504 -63.13122469 184.35556618 -60 180.8203125 C-58.66701026 178.20212794 -58.66701026 178.20212794 -58 175.8203125 C-59.2271875 175.99433594 -60.454375 176.16835938 -61.71875 176.34765625 C-65.51663629 176.77417668 -69.15196747 176.80771937 -72.96875 176.63671875 C-87.99293963 175.8636133 -87.99293963 175.8636133 -101.875 180.8203125 C-118.19414208 189.91251838 -139.14891694 184.0907933 -156.74316406 181.44433594 C-159.66595192 181.00774185 -162.5909282 180.60867239 -165.52246094 180.23535156 C-169.31353213 179.75247383 -173.09328723 179.21515275 -176.87149048 178.64044189 C-178.31697371 178.42924168 -179.76522153 178.23607157 -181.21566772 178.06219482 C-192.41010492 176.69572853 -192.41010492 176.69572853 -196.11669922 172.32348633 C-197.7373957 169.20507236 -198.91027363 166.15946485 -200 162.8203125 C-200.359729 161.87784668 -200.71945801 160.93538086 -201.09008789 159.96435547 C-202.14023914 157.16642949 -203.08333102 154.35210129 -204 151.5078125 C-204.33684814 150.4765625 -204.67369629 149.4453125 -205.02075195 148.3828125 C-210.97740147 129.83658162 -215.31393085 110.93558217 -219 91.8203125 C-219.24878906 90.54285156 -219.49757812 89.26539063 -219.75390625 87.94921875 C-221.1684784 79.86736251 -221.20368034 72.00147274 -221 63.8203125 C-217.64130388 68.82332733 -215.00952732 73.67452759 -213.1875 79.4453125 C-212.82192993 80.56945557 -212.82192993 80.56945557 -212.44897461 81.71630859 C-209.67031663 90.4922007 -207.38196689 99.40914049 -205.04956055 108.31152344 C-201.92753576 120.21654407 -198.52074972 132.02780136 -195 143.8203125 C-194.34 143.4903125 -193.68 143.1603125 -193 142.8203125 C-192.52903731 140.33314966 -192.19289263 137.93378195 -191.9296875 135.421875 C-191.84341599 134.65220901 -191.75714447 133.88254303 -191.66825867 133.08955383 C-191.38996393 130.54272622 -191.13016996 127.99455651 -190.875 125.4453125 C-190.78628632 124.57617218 -190.69757263 123.70703186 -190.60617065 122.81155396 C-189.3353337 110.12602602 -188.59235095 97.50697698 -188.5625 84.7578125 C-188.55659851 84.0494928 -188.55069702 83.3411731 -188.5446167 82.61138916 C-188.47492946 70.36609124 -189.59534641 58.30426954 -195.375 47.3203125 C-195.93960938 46.216875 -196.50421875 45.1134375 -197.0859375 43.9765625 C-200.134579 38.94941488 -203.44506525 34.80961063 -208.4375 31.5703125 C-209.15808594 31.09078125 -209.87867188 30.61125 -210.62109375 30.1171875 C-224.73972302 22.42033214 -241.49407658 26.61565422 -253 36.8203125 Z M-61 35.8203125 C-61.64881448 38.36125105 -62.29412899 40.90299523 -62.9375 43.4453125 C-63.11990234 44.15816406 -63.30230469 44.87101562 -63.49023438 45.60546875 C-64.51316799 49.66000563 -65.37957367 53.67978309 -66 57.8203125 C-66.66 57.8203125 -67.32 57.8203125 -68 57.8203125 C-68 58.4803125 -68 59.1403125 -68 59.8203125 C-69.01320313 59.60375 -70.02640625 59.3871875 -71.0703125 59.1640625 C-72.42181004 58.88250051 -73.77337625 58.601268 -75.125 58.3203125 C-76.12273437 58.10568359 -76.12273437 58.10568359 -77.140625 57.88671875 C-81.16056422 57.0590842 -84.89904899 56.66700592 -89 56.8203125 C-85.08264588 59.13938614 -80.82668476 59.94524509 -76.4375 60.9453125 C-75.66986328 61.12707031 -74.90222656 61.30882812 -74.11132812 61.49609375 C-71.01539228 62.21407015 -68.18871791 62.8203125 -65 62.8203125 C-64.88785156 63.39265625 -64.77570313 63.965 -64.66015625 64.5546875 C-63.92776966 67.06820362 -62.86145147 68.87961793 -61.4375 71.0703125 C-60.75494141 72.12992188 -60.75494141 72.12992188 -60.05859375 73.2109375 C-59.70925781 73.74203125 -59.35992187 74.273125 -59 74.8203125 C-59.58007812 74.6759375 -60.16015625 74.5315625 -60.7578125 74.3828125 C-65.26659675 73.31141822 -69.33054247 72.58085314 -74 72.8203125 C-69.59268252 75.45818971 -64.91616626 75.48562246 -59.8984375 75.96484375 C-58.94195312 76.24714844 -57.98546875 76.52945313 -57 76.8203125 C-55.796875 79.09375 -55.796875 79.09375 -55 81.8203125 C-53.99958424 83.45052367 -52.95760047 85.05598138 -51.875 86.6328125 C-51.33617187 87.42300781 -50.79734375 88.21320313 -50.2421875 89.02734375 C-49.83226562 89.61902344 -49.42234375 90.21070313 -49 90.8203125 C-48.505 89.8303125 -48.505 89.8303125 -48 88.8203125 C-49.04483093 86.65476907 -50.18662756 84.53553281 -51.375 82.4453125 C-53.39515092 78.87986685 -55.09252506 75.80770237 -56 71.8203125 C-56.598125 71.2221875 -57.19625 70.6240625 -57.8125 70.0078125 C-60.61688751 67.20342499 -62.78484706 64.60609506 -64 60.8203125 C-63.89587201 56.95442391 -63.06713404 53.32672154 -62.1875 49.5703125 C-61.75811109 47.60811988 -61.33465109 45.64461766 -60.91796875 43.6796875 C-60.71969482 42.81827148 -60.5214209 41.95685547 -60.31713867 41.06933594 C-59.80670173 38.6575492 -59.80670173 38.6575492 -61 35.8203125 Z M-53 55.8203125 C-52 58.8203125 -52 58.8203125 -52 58.8203125 Z M-54 58.8203125 C-53 62.8203125 -53 62.8203125 -53 62.8203125 Z M-30 59.8203125 C-29.67 61.1403125 -29.34 62.4603125 -29 63.8203125 C-28.67 63.1603125 -28.34 62.5003125 -28 61.8203125 C-28.66 61.1603125 -29.32 60.5003125 -30 59.8203125 Z M-55 62.8203125 C-55.33 65.4603125 -55.66 68.1003125 -56 70.8203125 C-53.8480563 67.59239695 -53.79913557 66.53630441 -54 62.8203125 C-54.33 62.8203125 -54.66 62.8203125 -55 62.8203125 Z M-28 63.8203125 C-27.67 64.8103125 -27.34 65.8003125 -27 66.8203125 C-27 65.8303125 -27 64.8403125 -27 63.8203125 C-27.33 63.8203125 -27.66 63.8203125 -28 63.8203125 Z M43 66.8203125 C44 69.8203125 44 69.8203125 44 69.8203125 Z M57 66.8203125 C56.75765625 67.58085937 56.5153125 68.34140625 56.265625 69.125 C54.81165903 72.22140902 53.62085979 73.15834876 50.75 74.9453125 C49.55310547 75.69554687 49.55310547 75.69554687 48.33203125 76.4609375 C45.60125486 78.05274685 42.86944078 79.49595522 40 80.8203125 C40.81380208 79.12760417 41.62760417 77.43489583 42.44140625 75.7421875 C43.11761944 73.41563584 42.75753907 72.08791291 42 69.8203125 C41.61070312 70.76132812 41.22140625 71.70234375 40.8203125 72.671875 C37.11073679 81.10221591 33.85294665 86.07963082 25 89.8203125 C25.18699463 89.29598633 25.37398926 88.77166016 25.56665039 88.23144531 C26.40965918 85.84814693 27.23619523 83.45945092 28.0625 81.0703125 C28.35705078 80.2453125 28.65160156 79.4203125 28.95507812 78.5703125 C29.22900391 77.77109375 29.50292969 76.971875 29.78515625 76.1484375 C30.17006226 75.04870605 30.17006226 75.04870605 30.56274414 73.92675781 C31.05680388 71.54666432 30.76066537 70.10456578 30 67.8203125 C29.78496826 68.54621582 29.56993652 69.27211914 29.34838867 70.02001953 C28.33733828 73.34314134 27.26342219 76.64265152 26.1875 79.9453125 C25.85041016 81.08742188 25.51332031 82.22953125 25.16601562 83.40625 C23.01436091 89.84250412 21.25794573 93.30745574 15.17578125 96.625 C13.46834582 97.39744825 11.74792891 98.1444748 10 98.8203125 C10.66 95.5203125 11.32 92.2203125 12 88.8203125 C9.65607687 91.16423563 9.75316625 91.89371597 9.375 95.0703125 C8.57078842 99.21870388 7.26589579 100.88142987 3.875 103.3828125 C2.59941818 104.22033864 1.31252393 105.04195528 0 105.8203125 C0.66 106.1503125 1.32 106.4803125 2 106.8203125 C2.721875 106.3459375 3.44375 105.8715625 4.1875 105.3828125 C7.76861645 103.39330336 9.94106373 103.4704042 14 103.8203125 C15.8253125 104.34625 15.8253125 104.34625 17.6875 104.8828125 C20.97925585 105.81444151 21.90438903 105.78474032 25 104.8203125 C23.58603098 104.31273388 22.16868271 103.81456325 20.75 103.3203125 C19.96109375 103.041875 19.1721875 102.7634375 18.359375 102.4765625 C15.76587262 101.64166389 15.76587262 101.64166389 12 101.8203125 C12 101.1603125 12 100.5003125 12 99.8203125 C12.721875 99.5521875 13.44375 99.2840625 14.1875 99.0078125 C17.02222203 97.93048086 17.02222203 97.93048086 19.3203125 96.171875 C22.74901612 94.44252886 24.06683128 94.90082567 27.6875 96.0078125 C33.09509723 97.56241294 38.47257689 98.78086346 44 99.8203125 C41.52621876 97.34653126 39.43825655 96.78893019 36.125 95.6953125 C35.07570313 95.34210938 34.02640625 94.98890625 32.9453125 94.625 C29.86577934 93.64461224 29.86577934 93.64461224 26 93.8203125 C26 92.8303125 26 91.8403125 26 90.8203125 C26.763125 90.6965625 27.52625 90.5728125 28.3125 90.4453125 C31.20267136 89.93928458 31.20267136 89.93928458 34 87.8203125 C38.95335807 88.19181436 43.68302214 89.85238369 48.4140625 91.296875 C51.05855859 91.83216575 52.48628703 91.7054227 55 90.8203125 C52.89748139 90.14846632 50.79292237 89.48300282 48.6875 88.8203125 C46.92986328 88.2634375 46.92986328 88.2634375 45.13671875 87.6953125 C42.06113324 86.68596478 42.06113324 86.68596478 39 86.8203125 C39 85.8303125 39 84.8403125 39 83.8203125 C44.87883349 81.20749762 50.70731728 81.63703048 57 81.8203125 C57 81.4903125 57 81.1603125 57 80.8203125 C54.36 80.4903125 51.72 80.1603125 49 79.8203125 C49 79.1603125 49 78.5003125 49 77.8203125 C53.52381127 75.77730096 58.16371695 74.81074955 63 73.8203125 C62.01 73.4903125 61.02 73.1603125 60 72.8203125 C58.8125 69.7578125 58.8125 69.7578125 58 66.8203125 C57.67 66.8203125 57.34 66.8203125 57 66.8203125 Z M61 68.8203125 C60.67 69.4803125 60.34 70.1403125 60 70.8203125 C60.99 70.4903125 61.98 70.1603125 63 69.8203125 C62.34 69.4903125 61.68 69.1603125 61 68.8203125 Z M57 81.8203125 C57 82.1503125 57 82.4803125 57 82.8203125 C58.98 82.8203125 60.96 82.8203125 63 82.8203125 C63 82.4903125 63 82.1603125 63 81.8203125 C61.02 81.8203125 59.04 81.8203125 57 81.8203125 Z M13 82.8203125 C14 85.8203125 14 85.8203125 14 85.8203125 Z M12 85.8203125 C13 87.8203125 13 87.8203125 13 87.8203125 Z M-48 90.8203125 C-47 92.8203125 -47 92.8203125 -47 92.8203125 Z M-39 99.8203125 C-38.67 100.4803125 -38.34 101.1403125 -38 101.8203125 C-31.4 102.1503125 -24.8 102.4803125 -18 102.8203125 C-20.13088601 98.55854047 -20.7767212 97.65652067 -25 95.8203125 C-31.267114 95.1239665 -34.11087789 95.90901481 -39 99.8203125 Z M-68 106.8203125 C-69.4818964 108.8554886 -69.4818964 108.8554886 -70 110.8203125 C-66.57150571 112.10599786 -63.72380695 111.53916729 -60.171875 111.01171875 C-56.67627219 110.70365304 -53.45568796 111.26493408 -50 111.8203125 C-49.94832473 109.39764164 -49.94832473 109.39764164 -51 106.8203125 C-57.74104687 103.20012066 -61.23934996 103.37852703 -68 106.8203125 Z M-107 108.8203125 C-106 110.8203125 -106 110.8203125 -106 110.8203125 Z M-98 108.8203125 C-97 110.8203125 -97 110.8203125 -97 110.8203125 Z M-119 110.8203125 C-116.32522069 113.49509181 -113.507025 114.4667239 -110 115.8203125 C-109.01 115.8203125 -108.02 115.8203125 -107 115.8203125 C-107 116.8103125 -107 117.8003125 -107 118.8203125 C-106.07767578 118.98466797 -106.07767578 118.98466797 -105.13671875 119.15234375 C-104.32847656 119.31089844 -103.52023437 119.46945312 -102.6875 119.6328125 C-101.88699219 119.78363281 -101.08648437 119.93445313 -100.26171875 120.08984375 C-98 120.8203125 -98 120.8203125 -96.52734375 122.296875 C-94.49251013 124.32650444 -92.63834708 124.67787702 -89.875 125.3828125 C-87.1796875 126.07421875 -87.1796875 126.07421875 -85 126.8203125 C-84.505 127.8103125 -84.505 127.8103125 -84 128.8203125 C-82.02324185 129.69537406 -82.02324185 129.69537406 -79.6875 130.3828125 C-78.90761719 130.63160156 -78.12773437 130.88039063 -77.32421875 131.13671875 C-75.22613818 131.75380127 -73.12613612 132.309456 -71 132.8203125 C-73.32099705 130.2207958 -75.60039981 128.37494434 -78.625 126.6953125 C-82 124.8203125 -82 124.8203125 -84 122.8203125 C-85.65391846 122.42859497 -87.32345271 122.09973705 -89 121.8203125 C-90.33542939 121.49547832 -91.66961551 121.165227 -93 120.8203125 C-93.66 118.5103125 -94.32 116.2003125 -95 113.8203125 C-95.33 114.8103125 -95.66 115.8003125 -96 116.8203125 C-95.67 117.4803125 -95.34 118.1403125 -95 118.8203125 C-96.29409289 118.20035172 -97.58519673 117.57414897 -98.875 116.9453125 C-99.59429687 116.59726562 -100.31359375 116.24921875 -101.0546875 115.890625 C-103 114.8203125 -103 114.8203125 -105 112.8203125 C-105 113.4803125 -105 114.1403125 -105 114.8203125 C-105.67546875 114.5315625 -106.3509375 114.2428125 -107.046875 113.9453125 C-107.93890625 113.5740625 -108.8309375 113.2028125 -109.75 112.8203125 C-110.63171875 112.4490625 -111.5134375 112.0778125 -112.421875 111.6953125 C-115.17753771 110.60605367 -115.17753771 110.60605367 -119 110.8203125 Z M-106 110.8203125 C-105 112.8203125 -105 112.8203125 -105 112.8203125 Z M-97 110.8203125 C-96 112.8203125 -96 112.8203125 -96 112.8203125 Z M-87 111.8203125 C-86 114.8203125 -86 114.8203125 -86 114.8203125 Z M-4 118.8203125 C-4 119.8103125 -4 120.8003125 -4 121.8203125 C-0.63762383 122.84993965 2.37084722 122.89164385 5.875 122.8203125 C10.04435144 122.77953645 13.90865143 122.91112393 18 123.8203125 C18.42534524 119.86018862 18.42534524 119.86018862 16.1875 117.6328125 C12.47094636 114.55338234 8.92900185 114.48583699 4.296875 114.53125 C0.75349178 114.97718598 -1.3836694 116.4723235 -4 118.8203125 Z M-86 115.8203125 C-85 118.8203125 -85 118.8203125 -85 118.8203125 Z M-85 118.8203125 C-84 121.8203125 -84 121.8203125 -84 121.8203125 Z M-37 125.8203125 C-37 126.8103125 -37 127.8003125 -37 128.8203125 C-35.90300781 128.88089844 -34.80601562 128.94148437 -33.67578125 129.00390625 C-32.22134346 129.08835748 -30.76691695 129.17300316 -29.3125 129.2578125 C-28.59126953 129.29712891 -27.87003906 129.33644531 -27.12695312 129.37695312 C-23.33292718 129.60216928 -19.71348508 129.94870555 -16 130.8203125 C-15.66918918 127.72290709 -15.66918918 127.72290709 -17.875 125.6953125 C-21.66322116 122.35276442 -24.61558362 122.5480572 -29.51171875 122.59765625 C-32.69367784 122.88238414 -34.62295936 123.68097592 -37 125.8203125 Z M-98 123.8203125 C-100.67676547 125.19281213 -100.67676547 125.19281213 -103 126.8203125 C-102.01 127.3153125 -102.01 127.3153125 -101 127.8203125 C-98.96855359 126.88584715 -96.96466413 125.88806474 -95 124.8203125 C-95.99 124.4903125 -96.98 124.1603125 -98 123.8203125 Z M-67 139.8203125 C-69.28600028 142.52363555 -69.28600028 142.52363555 -68.6875 144.9453125 C-68.15421514 146.80625103 -68.15421514 146.80625103 -67 147.8203125 C-59.72635313 148.36847139 -53.42300385 148.4697465 -47 144.8203125 C-45.75339676 143.76976649 -45.75339676 143.76976649 -45.625 141.4453125 C-45.73979729 138.68448516 -45.73979729 138.68448516 -47.9375 137.0078125 C-55.18651577 134.19696965 -60.79681515 135.38946618 -67 139.8203125 Z M-15.125 143.1953125 C-15.80820312 143.45054687 -16.49140625 143.70578125 -17.1953125 143.96875 C-19.19115329 144.78630646 -19.19115329 144.78630646 -21 146.8203125 C-21 147.8103125 -21 148.8003125 -21 149.8203125 C-17.30580788 150.59803716 -13.88029885 150.84474071 -10.125 150.7578125 C-5.40850884 150.69349671 -1.51262915 151.4832372 3 152.8203125 C3.69282945 150.95697317 3.69282945 150.95697317 4 148.8203125 C0.83481511 144.79189536 -2.03682381 142.98190693 -7 141.8203125 C-10.46380064 141.8203125 -12.04227667 142.01145297 -15.125 143.1953125 Z M18 145.8203125 C17.2484001 148.37309208 17.2484001 148.37309208 17 150.8203125 C17.76183594 150.80871094 18.52367187 150.79710937 19.30859375 150.78515625 C25.63840322 150.72983956 31.72555549 150.9837199 38 151.8203125 C38.33 151.1603125 38.66 150.5003125 39 149.8203125 C36.35098509 146.0920693 34.46747448 144.01890321 30 142.8203125 C25.4112373 142.21652793 22.00063859 143.58918713 18 145.8203125 Z M-35 166.8203125 C-35.67546875 167.95210937 -36.3509375 169.08390625 -37.046875 170.25 C-37.94738705 171.73209275 -38.84845801 173.21384602 -39.75 174.6953125 C-40.1934375 175.44167969 -40.636875 176.18804688 -41.09375 176.95703125 C-41.53203125 177.67246094 -41.9703125 178.38789062 -42.421875 179.125 C-42.81987305 179.78483887 -43.21787109 180.44467773 -43.62792969 181.12451172 C-45.21692832 183.08842355 -46.689808 183.85415414 -49 184.8203125 C-44.86506549 184.57708106 -42.56868302 184.28319403 -39.3125 181.6328125 C-34.71622321 176.39699673 -34.71622321 176.39699673 -32.75 169.9453125 C-32.87375 168.8934375 -32.87375 168.8934375 -33 167.8203125 C-33.66 167.4903125 -34.32 167.1603125 -35 166.8203125 Z M-48 169.8203125 C-48.66 170.4803125 -49.32 171.1403125 -50 171.8203125 C-49.6814823 173.92852047 -49.6814823 173.92852047 -49 175.8203125 C-48.34 173.8403125 -47.68 171.8603125 -47 169.8203125 C-47.33 169.8203125 -47.66 169.8203125 -48 169.8203125 Z M8 175.8203125 C4.7 177.1403125 1.4 178.4603125 -2 179.8203125 C-2 180.1503125 -2 180.4803125 -2 180.8203125 C2.67461851 181.14644868 5.16674383 180.52614038 9 177.8203125 C8.67 177.1603125 8.34 176.5003125 8 175.8203125 Z " fill="#4D240C" transform="translate(377,354.1796875)"/>
<path d="M0 0 C9.73122117 7.55879024 16.82102089 16.45552115 22.64697266 27.27929688 C23.02982422 27.96121094 23.41267578 28.643125 23.80712891 29.34570312 C24.84563196 31.2923708 25.75710653 33.26012274 26.64697266 35.27929688 C27.06076172 36.20355469 27.47455078 37.1278125 27.90087891 38.08007812 C33.08155139 50.3188875 36.77789676 63.07691887 40.59814453 75.79003906 C41.24538048 77.94327373 41.89683684 80.09525121 42.55517578 82.24511719 C49.16332144 103.82703971 53.25822896 125.84533921 55.64697266 148.27929688 C55.74341064 149.10961426 55.83984863 149.93993164 55.93920898 150.79541016 C57.0436276 161.66650844 56.84477535 172.61499947 56.83447266 183.52929688 C56.83406479 185.1415062 56.83406479 185.1415062 56.83364868 186.7862854 C56.81584145 202.04907867 56.57467989 217.12009679 54.64697266 232.27929688 C54.5504541 233.11605957 54.45393555 233.95282227 54.35449219 234.81494141 C49.63893297 275.4430846 37.92013849 317.08344514 18.69189453 353.29101562 C17.55111818 355.46168912 16.44966634 357.64997777 15.35009766 359.84179688 C11.05573424 368.31812845 6.44432239 376.46928301 1.20947266 384.40429688 C0.70125977 385.1807959 0.19304687 385.95729492 -0.33056641 386.75732422 C-0.81106445 387.46840332 -1.2915625 388.17948242 -1.78662109 388.91210938 C-2.42168579 389.85401123 -2.42168579 389.85401123 -3.06958008 390.81494141 C-4.35302734 392.27929688 -4.35302734 392.27929688 -7.35302734 393.27929688 C-6.37734094 389.10946955 -4.82604688 385.21120583 -3.25537109 381.23632812 C-2.61563032 379.60183919 -1.97640942 377.96714671 -1.33764648 376.33227539 C-0.83589401 375.04971359 -0.83589401 375.04971359 -0.32400513 373.74124146 C21.78617578 317.0591338 34.88194495 259.33759363 33.64697266 198.27929688 C33.06544434 198.80966553 32.48391602 199.34003418 31.88476562 199.88647461 C10.1899768 219.46093856 -25.22591966 230.27929688 -54.35302734 230.27929688 C-54.31822266 231.44589844 -54.28341797 232.6125 -54.24755859 233.81445312 C-54.25439816 240.83047823 -55.18076364 247.76501869 -56.04052734 254.71679688 C-56.17399063 255.80468506 -56.17399063 255.80468506 -56.31015015 256.91455078 C-61.74713406 300.79993734 -73.29097149 359.68329161 -103.35302734 394.27929688 C-104.01302734 394.27929688 -104.67302734 394.27929688 -105.35302734 394.27929688 C-103.4153144 387.66838654 -101.336389 381.11169851 -99.1940918 374.56445312 C-84.01939712 328.06083854 -77.24278744 281.87315678 -73.35302734 233.27929688 C-87.13365851 235.48995861 -99.89607922 238.38759866 -112.98974609 243.2265625 C-125.78237101 247.90839945 -133.9285895 248.20007992 -146.85302734 244.15429688 C-147.90256592 243.84024902 -148.95210449 243.52620117 -150.03344727 243.20263672 C-154.81688255 241.75518588 -159.55693795 240.23927246 -164.24755859 238.51367188 C-172.10579228 235.63687502 -178.94128801 233.8787305 -187.35302734 233.65429688 C-206.32036788 233.1225907 -216.66378146 221.07859304 -229.54052734 208.34179688 C-230.27150635 207.62032471 -231.00248535 206.89885254 -231.75561523 206.15551758 C-240.77944435 197.0744347 -240.77944435 197.0744347 -240.79052734 190.77929688 C-240.6596878 187.73476133 -240.38183638 186.33315725 -238.91552734 183.59179688 C-236.35302734 181.27929688 -236.35302734 181.27929688 -234.25708008 180.19140625 C-230.44376265 178.14959248 -227.91705132 176.50456064 -226.07397461 172.50073242 C-225.15478477 169.17010828 -224.46334008 165.86738315 -223.85302734 162.46679688 C-223.61583984 161.32919922 -223.37865234 160.19160156 -223.13427734 159.01953125 C-222.47635203 155.78037053 -221.89428275 152.53979664 -221.35302734 149.27929688 C-221.20099854 148.38758789 -221.04896973 147.49587891 -220.89233398 146.57714844 C-220.15249886 142.31092967 -220.15249886 142.31092967 -221.47192383 138.34570312 C-221.90706299 137.78753906 -222.34220215 137.229375 -222.79052734 136.65429688 C-226.95458776 130.83617913 -225.85278288 124.10472521 -225.35302734 117.27929688 C-225.26923828 116.08691406 -225.18544922 114.89453125 -225.09912109 113.66601562 C-224.45438437 107.78194471 -223.64480709 103.03478576 -219.38818359 98.73632812 C-216.86753151 96.93171541 -214.24720817 95.78742791 -211.41552734 94.52929688 C-205.41193074 91.7680866 -203.16957719 88.63947956 -199.99755859 82.97460938 C-196.24801407 76.82927512 -191.28440983 73.1001805 -184.35302734 71.27929688 C-182.23012739 71.16604043 -180.10390731 71.1046654 -177.97802734 71.09179688 C-171.98052207 70.73618653 -169.11256585 69.31898272 -165.03662109 64.97070312 C-161.39441802 61.31159887 -157.40918307 60.60550047 -152.35302734 60.27929688 C-148.18277436 60.79977529 -144.03780794 61.3758172 -140.30615234 63.37695312 C-137.96407716 64.45899186 -136.81042736 64.32820529 -134.29052734 63.90429688 C-125.6247094 62.74790272 -118.64714846 61.92035075 -111.35302734 67.27929688 C-110.77939453 67.95734375 -110.20576172 68.63539063 -109.61474609 69.33398438 C-106.55956384 71.96175772 -104.06544463 72.10084183 -100.10302734 72.65429688 C-92.52863811 73.90346431 -87.6369555 76.39967943 -82.67333984 82.26367188 C-78.91372089 85.52960349 -74.30535536 86.77330642 -69.64013672 88.37109375 C-63.11539492 90.82145852 -60.29532479 94.30994719 -57.27880859 100.47460938 C-53.41603941 112.62880032 -51.02002306 125.38259501 -56.35302734 137.27929688 C-57.01302734 138.26929688 -57.67302734 139.25929688 -58.35302734 140.27929688 C-58.1128732 147.7240753 -56.52329833 155.51605211 -53.35302734 162.27929688 C-50.89196325 163.34635777 -49.60580916 163.34607686 -47.00292969 162.65844727 C-46.15682129 162.3180542 -45.31071289 161.97766113 -44.43896484 161.62695312 C-43.51341797 161.26279297 -42.58787109 160.89863281 -41.63427734 160.5234375 C-40.67521484 160.13349609 -39.71615234 159.74355469 -38.72802734 159.34179688 C-36.82025769 158.57996086 -34.91145217 157.82071207 -33.00146484 157.06445312 C-32.1576123 156.72293213 -31.31375977 156.38141113 -30.44433594 156.02954102 C-28.35302734 155.27929688 -28.35302734 155.27929688 -26.35302734 155.27929688 C-26.11326172 154.4775 -25.87349609 153.67570313 -25.62646484 152.84960938 C-24.66064979 150.14177209 -23.64549958 147.7149851 -22.39208984 145.14648438 C-11.12780751 121.99751989 -2.52160557 96.67013779 2.25488281 71.35205078 C2.60067934 69.52402308 2.98605163 67.70357693 3.37744141 65.88476562 C5.61703119 54.65675511 7.00652347 41.28419769 0.64697266 31.27929688 C0.01082031 30.16361328 0.01082031 30.16361328 -0.63818359 29.02539062 C-6.53568109 19.31669698 -15.60840003 11.47946753 -26.79052734 8.66601562 C-36.53070076 7.19608092 -44.75626632 8.30958695 -53.41552734 12.90429688 C-63.88686709 21.37048646 -69.2366773 31.64133334 -71.07958984 44.95898438 C-72.04888929 56.72904913 -71.31058213 68.53215153 -70.35302734 80.27929688 C-74.50242941 79.5305852 -77.64166597 78.32433273 -81.35302734 76.27929688 C-82.91029541 75.45051025 -82.91029541 75.45051025 -84.49902344 74.60498047 C-87.35302734 72.27929688 -87.35302734 72.27929688 -88.09765625 69.10986328 C-88.09169434 67.87929199 -88.08573242 66.6487207 -88.07958984 65.38085938 C-88.08108536 64.37374405 -88.08108536 64.37374405 -88.08261108 63.34628296 C-88.07793582 61.92230425 -88.05851258 60.49830816 -88.02539062 59.07470703 C-87.97890896 56.94469668 -87.98417247 54.81982939 -87.99755859 52.68945312 C-87.92375379 34.62582647 -82.20761533 18.57732288 -69.51708984 5.41992188 C-68.80294922 4.71351563 -68.08880859 4.00710938 -67.35302734 3.27929688 C-66.82451172 2.71726562 -66.29599609 2.15523438 -65.75146484 1.57617188 C-47.72489009 -15.98818301 -19.25122388 -13.92715685 0 0 Z M-157.72802734 70.27929688 C-158.26427734 70.93929687 -158.80052734 71.59929687 -159.35302734 72.27929688 C-154.74229623 73.576065 -151.01462646 72.99038827 -146.35302734 72.27929688 C-146.68302734 71.28929687 -147.01302734 70.29929687 -147.35302734 69.27929688 C-151.25815011 67.32673549 -154.3974252 67.47457928 -157.72802734 70.27929688 Z M-134.35302734 76.27929688 C-133.57185547 76.04919922 -133.57185547 76.04919922 -132.77490234 75.81445312 C-129.72024219 75.13947177 -126.72286764 74.9351857 -123.60302734 74.71679688 C-121.84732422 74.59111328 -121.84732422 74.59111328 -120.05615234 74.46289062 C-119.16412109 74.40230469 -118.27208984 74.34171875 -117.35302734 74.27929688 C-118.97380521 71.09125513 -118.97380521 71.09125513 -121.56005859 70.81054688 C-127.804588 70.73564997 -130.54818772 71.20617738 -134.35302734 76.27929688 Z M18.64697266 77.27929688 C16.93654044 81.95501112 15.83546909 86.68021723 14.74536133 91.52636719 C10.49420691 110.27563682 4.37655093 128.00157819 -3.47143555 145.54394531 C-3.83325928 146.35637695 -4.19508301 147.16880859 -4.56787109 148.00585938 C-5.04921509 149.06667725 -5.04921509 149.06667725 -5.5402832 150.14892578 C-6.43817301 152.50248133 -6.92196305 154.8012868 -7.35302734 157.27929688 C-4.38302734 157.93929687 -1.41302734 158.59929687 1.64697266 159.27929688 C1.64697266 160.26929688 1.64697266 161.25929688 1.64697266 162.27929688 C0.61830078 162.35277344 -0.41037109 162.42625 -1.47021484 162.50195312 C-8.0376794 163.33333247 -14.23126226 165.60735548 -20.47802734 167.71679688 C-21.14020264 167.9389386 -21.80237793 168.16108032 -22.48461914 168.38995361 C-39.04117356 173.97333657 -54.52736766 181.07644596 -69.85302734 189.46679688 C-71.24944458 190.22694092 -71.24944458 190.22694092 -72.67407227 191.00244141 C-76.50888699 193.10403957 -80.30106884 195.20881462 -83.96630859 197.59570312 C-92.64825236 202.84303177 -99.84922439 202.68845598 -109.80541992 202.35864258 C-119.11292658 202.08639503 -127.2599931 203.55080872 -136.23193359 205.82177734 C-139.90914182 206.61495048 -143.61036067 206.92934281 -147.35302734 207.27929688 C-145.81863088 210.76590668 -144.48196312 212.31126136 -140.83740234 213.75195312 C-135.15161328 214.95884231 -129.13686324 214.48027959 -123.35302734 214.27929688 C-123.35302734 215.26929688 -123.35302734 216.25929688 -123.35302734 217.27929688 C-133.68043737 222.55286795 -146.39082459 220.89892575 -157.41552734 218.72460938 C-162.70440909 217.92283741 -168.01870507 218.12442945 -173.35302734 218.27929688 C-173.84802734 220.25929688 -173.84802734 220.25929688 -174.35302734 222.27929688 C-166.84343745 226.40354701 -159.24069793 229.10514184 -151.04052734 231.52929688 C-149.88746094 231.87992188 -148.73439453 232.23054687 -147.54638672 232.59179688 C-132.36344697 237.16868306 -122.76968103 236.44238833 -108.19873047 230.05517578 C-91.86063325 222.97209834 -75.70332857 219.18416125 -58.22802734 216.02929688 C-53.09820955 215.07734529 -47.97108136 214.11166312 -42.84521484 213.13867188 C-41.61141586 212.90507965 -40.37761688 212.67148743 -39.10643005 212.43081665 C-31.19625448 210.90538734 -23.36782257 209.17767545 -15.56787109 207.16210938 C-14.21186295 206.81487823 -14.21186295 206.81487823 -12.82846069 206.46063232 C3.32242709 202.13361983 18.52036691 194.85908735 27.24462891 180.01757812 C42.32180486 150.5771872 28.5178218 106.60020089 19.64697266 77.27929688 C19.31697266 77.27929688 18.98697266 77.27929688 18.64697266 77.27929688 Z M-188.35302734 81.27929688 C-189.64209039 83.30258995 -189.64209039 83.30258995 -190.35302734 85.27929688 C-187.41839223 86.74661443 -185.55898331 85.8065878 -182.41552734 85.02929688 C-181.35462891 84.77664063 -180.29373047 84.52398437 -179.20068359 84.26367188 C-176.41048476 83.2991587 -175.17683856 82.54158535 -173.35302734 80.27929688 C-178.7621162 77.64409974 -183.22773977 78.34763238 -188.35302734 81.27929688 Z M-108.35302734 85.27929688 C-107.61697266 85.32828125 -106.88091797 85.37726563 -106.12255859 85.42773438 C-105.14673828 85.5025 -104.17091797 85.57726562 -103.16552734 85.65429688 C-102.20259766 85.72390625 -101.23966797 85.79351562 -100.24755859 85.86523438 C-97.30674923 86.28591696 -95.01288165 86.96590523 -92.35302734 88.27929688 C-92.02302734 88.93929687 -91.69302734 89.59929687 -91.35302734 90.27929688 C-91.64727578 85.75860942 -91.64727578 85.75860942 -94.47802734 82.40429688 C-100.31149978 80.12163375 -104.38734981 80.20322964 -108.35302734 85.27929688 Z M-150.25146484 86.97070312 C-156.96848292 89.33331358 -162.35482177 89.38357646 -169.35302734 88.27929688 C-166.55960095 91.68378529 -164.83187764 93.14584679 -160.54052734 94.34179688 C-155.97287055 94.65441217 -151.87743903 93.20605272 -148.35302734 90.27929688 C-147.58627939 88.21148183 -147.58627939 88.21148183 -147.35302734 86.27929688 C-148.53316045 86.22226209 -148.53316045 86.22226209 -150.25146484 86.97070312 Z M-131.91552734 88.52929688 C-133.09308594 88.87734375 -133.09308594 88.87734375 -134.29443359 89.23242188 C-136.81609411 90.51478434 -137.36083165 91.6834984 -138.35302734 94.27929688 C-135.39434816 94.13883433 -132.4362047 93.99217463 -129.47802734 93.84179688 C-128.63626953 93.80248047 -127.79451172 93.76316406 -126.92724609 93.72265625 C-126.12158203 93.68076172 -125.31591797 93.63886719 -124.48583984 93.59570312 C-123.74221191 93.55904541 -122.99858398 93.5223877 -122.23242188 93.48461914 C-120.26438423 93.37973822 -120.26438423 93.37973822 -118.35302734 92.27929688 C-118.68302734 91.28929687 -119.01302734 90.29929687 -119.35302734 89.27929688 C-123.94055936 86.98553087 -127.09922818 87.03759301 -131.91552734 88.52929688 Z M-192.66552734 96.59179688 C-193.22240234 97.14867187 -193.77927734 97.70554687 -194.35302734 98.27929688 C-194.35302734 98.93929687 -194.35302734 99.59929687 -194.35302734 100.27929688 C-190.53205495 99.74860627 -188.29131331 98.78228122 -185.35302734 96.27929688 C-188.47277149 95.32604172 -189.76252956 94.94414948 -192.66552734 96.59179688 Z M-113.35302734 99.27929688 C-113.35302734 100.59929687 -113.35302734 101.91929687 -113.35302734 103.27929688 C-112.65564453 103.11429687 -111.95826172 102.94929688 -111.23974609 102.77929688 C-108.14345612 102.24299766 -105.30460873 102.2169052 -102.16552734 102.27929688 C-98.1036465 102.48416226 -98.1036465 102.48416226 -94.35302734 101.27929688 C-94.68290373 98.80522396 -94.93274822 97.61552018 -96.91552734 96.02929688 C-103.45039329 94.01856889 -108.23635563 94.67429233 -113.35302734 99.27929688 Z M-177.35302734 101.27929688 C-176.04407014 104.40127165 -176.04407014 104.40127165 -173.35302734 106.27929688 C-171.69067923 106.42531394 -170.02152227 106.50019522 -168.35302734 106.52929688 C-167.46615234 106.55507813 -166.57927734 106.58085937 -165.66552734 106.60742188 C-164.90240234 106.49914062 -164.13927734 106.39085937 -163.35302734 106.27929688 C-162.69302734 105.28929687 -162.03302734 104.29929687 -161.35302734 103.27929688 C-166.80763904 101.89399867 -171.72021135 101.03960258 -177.35302734 101.27929688 Z M-152.35302734 104.27929688 C-152.68302734 105.26929688 -153.01302734 106.25929688 -153.35302734 107.27929688 C-152.51513672 107.11558594 -151.67724609 106.951875 -150.81396484 106.78320312 C-147.14785427 106.24942405 -143.6806335 106.18186663 -139.97802734 106.21679688 C-138.11017578 106.23033203 -138.11017578 106.23033203 -136.20458984 106.24414062 C-134.79306641 106.26154297 -134.79306641 106.26154297 -133.35302734 106.27929688 C-134.14420638 104.27946154 -134.14420638 104.27946154 -135.35302734 102.27929688 C-141.59466517 100.19875093 -146.85870989 100.66108782 -152.35302734 104.27929688 Z M-76.41552734 105.96679688 C-92.79711747 114.24545505 -112.12314175 117.57403753 -130.35302734 118.27929688 C-131.05637207 118.30652832 -131.7597168 118.33375977 -132.484375 118.36181641 C-156.87824897 119.16534364 -183.62320165 117.12835272 -206.10888672 106.96655273 C-208.64001567 106.19140826 -209.8935845 106.39987038 -212.35302734 107.27929688 C-214.22858801 112.78875633 -214.64231831 117.48350203 -214.35302734 123.27929688 C-214.34658203 123.99730469 -214.34013672 124.7153125 -214.33349609 125.45507812 C-214.1388659 129.28280521 -213.49293945 131.11729338 -210.97802734 134.02929688 C-189.63858527 148.83322536 -147.33846303 149.22010507 -122.35302734 146.27929688 C-121.30131348 146.15635254 -120.24959961 146.0334082 -119.16601562 145.90673828 C-91.11741669 143.48763314 -91.11741669 143.48763314 -67.35302734 130.27929688 C-64.50709464 122.45298194 -64.62582915 113.75225502 -67.91552734 106.02929688 C-68.38990234 105.12179687 -68.86427734 104.21429688 -69.35302734 103.27929688 C-72.21154273 103.27929688 -73.90805335 104.59751603 -76.41552734 105.96679688 Z M-88.85302734 147.09179688 C-117.5324642 153.28108563 -149.24660854 154.70741411 -178.24853516 150.5703125 C-182.15006017 150.03079767 -186.06528899 149.60363386 -189.97802734 149.15429688 C-192.43658111 148.86445869 -194.89478833 148.5717962 -197.35302734 148.27929688 C-200.73768376 160.54867639 -200.18784624 171.49442582 -195.35302734 183.27929688 C-196.01302734 183.27929688 -196.67302734 183.27929688 -197.35302734 183.27929688 C-198.36432861 180.76007318 -199.36874225 178.23890464 -200.35302734 175.70898438 C-200.68302734 174.8659375 -201.01302734 174.02289062 -201.35302734 173.15429688 C-201.84802734 171.88199219 -201.84802734 171.88199219 -202.35302734 170.58398438 C-203.35996088 168.07641974 -203.35996088 168.07641974 -205.35302734 165.27929688 C-206.70742402 167.98809023 -206.41804185 170.28862955 -206.35302734 173.27929688 C-207.01302734 173.27929688 -207.67302734 173.27929688 -208.35302734 173.27929688 C-208.41361328 172.02632812 -208.47419922 170.77335937 -208.53662109 169.48242188 C-208.6210499 167.83136963 -208.70569673 166.18032852 -208.79052734 164.52929688 C-208.82984375 163.70429687 -208.86916016 162.87929688 -208.90966797 162.02929688 C-208.97250977 160.83046875 -208.97250977 160.83046875 -209.03662109 159.60742188 C-209.07327881 158.87426758 -209.10993652 158.14111328 -209.14770508 157.38574219 C-209.35417519 155.26752083 -209.78434821 153.32735127 -210.35302734 151.27929688 C-212.21196537 155.96705365 -213.85805264 160.2305549 -214.35302734 165.27929688 C-214.48708984 166.13910156 -214.62115234 166.99890625 -214.75927734 167.88476562 C-215.05495117 170.92774211 -215.08829139 173.30666492 -214.35302734 176.27929688 C-212.27225296 178.12616688 -210.1060747 179.08467654 -207.59521484 180.28320312 C-203.15896732 183.01443503 -200.01570083 186.61710753 -196.47802734 190.40429688 C-190.19027701 196.92160694 -185.46137185 200.70603737 -176.35302734 202.27929688 C-174.6228521 202.63906347 -172.89377321 203.00412333 -171.16552734 203.37304688 C-166.23932027 204.40822661 -161.30208322 205.35990705 -156.35302734 206.27929688 C-155.03302734 203.63929688 -153.71302734 200.99929688 -152.35302734 198.27929688 C-151.19029297 198.25351562 -150.02755859 198.22773437 -148.82958984 198.20117188 C-139.45003147 197.89988011 -130.76296617 196.92255666 -121.65454102 194.65356445 C-116.40031879 193.38651031 -111.64660489 192.97770363 -106.22412109 193.43164062 C-97.09634507 192.94730965 -90.02317034 187.81523929 -82.66552734 182.84179688 C-81.65941406 182.17341797 -80.65330078 181.50503906 -79.61669922 180.81640625 C-77.69130774 179.53577342 -75.77105749 178.24736493 -73.85693359 176.94995117 C-72.37027195 175.958022 -70.8673317 174.98883068 -69.33349609 174.0715332 C-66.25027339 172.24381062 -66.25027339 172.24381062 -64.62646484 169.15820312 C-64.98853232 160.90027954 -66.71762849 152.23239515 -71.35302734 145.27929688 C-77.18731689 144.16360355 -83.18584923 145.74319194 -88.85302734 147.09179688 Z M-228.04052734 188.27929688 C-228.47365234 188.93929687 -228.90677734 189.59929687 -229.35302734 190.27929688 C-223.5576498 202.39690447 -210.01359313 214.80623633 -197.48193359 219.69335938 C-192.80947067 220.97935834 -188.948255 221.04223184 -184.47802734 218.90429688 C-182.29382901 217.30820769 -182.29382901 217.30820769 -180.35302734 215.27929688 C-180.35302734 213.95929688 -180.35302734 212.63929688 -180.35302734 211.27929688 C-181.34302734 210.86679687 -182.33302734 210.45429687 -183.35302734 210.02929688 C-184.68693116 209.44726923 -186.02023737 208.86387059 -187.35302734 208.27929688 C-188.28755737 207.89318237 -188.28755737 207.89318237 -189.2409668 207.49926758 C-194.94473867 204.944764 -198.48932657 201.40029208 -202.54052734 196.71679688 C-208.5899005 189.381808 -208.5899005 189.381808 -217.10693359 185.84570312 C-222.97173582 185.69540718 -222.97173582 185.69540718 -228.04052734 188.27929688 Z " fill="#4D230B" transform="translate(909.35302734375,373.720703125)"/>
<path d="M0 0 C1 1 1 1 1.3125 3.75 C1.13766759 13.19095028 -2.82041825 22.93353384 -9 30 C-19.220597 39.82410832 -33.24536065 42.25008435 -47 42 C-42.60068367 32.30307763 -34.67739378 24.18734737 -27 17 C-36.10025385 20.73760426 -41.95638753 27.10033358 -46.30859375 35.8828125 C-48.79350171 43.49196568 -47.73926774 51.01951783 -47.125 58.875 C-46.9272519 61.59079556 -46.73669342 64.30707741 -46.546875 67.0234375 C-46.47495438 68.04319672 -46.47495438 68.04319672 -46.40158081 69.08355713 C-44.98534135 89.38268469 -44.86308871 109.66340768 -45 130 C-43.68 130.33 -42.36 130.66 -41 131 C-41.165 129.80375 -41.33 128.6075 -41.5 127.375 C-42.23219971 120.92958003 -42.08292095 114.47704735 -42 108 C-35.47077172 107.71973106 -29.65632451 107.55886446 -23.4375 109.75 C-17.76483415 111.54703429 -14.13837856 110.12060521 -8.73046875 108.0078125 C-5.2975141 106.74071336 -2.62029405 106.48281514 1 107 C2.65 107.99 4.3 108.98 6 110 C5.67 116.6 5.34 123.2 5 130 C5.66 130 6.32 130 7 130 C7.05637936 121.2458856 7.03055639 112.50424707 6.74609375 103.75390625 C6.70931015 102.61760269 6.70931015 102.61760269 6.67178345 101.45834351 C6.56920321 98.36229676 6.46271933 95.2664139 6.35180664 92.1706543 C6.27033762 89.86519912 6.19529146 87.55960518 6.12109375 85.25390625 C6.08054115 84.20101158 6.08054115 84.20101158 6.03916931 83.12684631 C5.8866612 78.22667761 5.8866612 78.22667761 7 76 C6.16597656 75.97421875 5.33195313 75.9484375 4.47265625 75.921875 C-6.0450834 75.39177128 -13.48416852 73.25692941 -21.26953125 65.984375 C-25.24957188 61.4203555 -27.20724691 56.48706165 -27.25 50.4375 C-27.1675 49.303125 -27.085 48.16875 -27 47 C-18.51250191 44.87812548 -9.64986499 45.5820702 -1.875 49.625 C2.28785475 53.06388001 6.55865917 57.11731834 9 62 C9.38929688 61.27554688 9.77859375 60.55109375 10.1796875 59.8046875 C14.63845617 52.0994421 19.32931225 47.36701823 27.81640625 44.35546875 C31.12026446 43.81763137 34.4137585 43.89650648 37.75 43.9375 C38.79607422 43.94426758 38.79607422 43.94426758 39.86328125 43.95117188 C41.57555803 43.9628998 43.28779033 43.98083347 45 44 C46.10065725 50.29820539 45.92177519 54.32713751 43 60 C36.55013812 68.66221556 27.22993809 71.81849462 17 74 C16.01 74 15.02 74 14 74 C14 92.81 14 111.62 14 131 C14.66 131 15.32 131 16 131 C16 124.07 16 117.14 16 110 C18.248125 110.185625 20.49625 110.37125 22.8125 110.5625 C27.58953637 110.92864969 32.04223357 111.01240629 36.8125 110.375 C43.7312223 109.58222974 49.47122552 111.26456654 55.1875 115.1875 C58.72399816 117.46657659 60.86312819 117.38304369 65 117 C65.60714844 116.83757812 66.21429687 116.67515625 66.83984375 116.5078125 C75.82196984 114.39628195 82.86600365 116.02121844 90.87109375 120.13671875 C96.43434491 122.81306223 102.36274718 124.50141617 108.25 126.3125 C109.36334717 126.66183594 110.47669434 127.01117187 111.6237793 127.37109375 C117.78926652 129.2436399 123.57058058 130.53203593 130 131 C129.67 131.99 129.34 132.98 129 134 C121.42734719 135.21048277 113.90498484 135.13974913 106.25276184 135.12698364 C104.74799315 135.12813678 103.24322473 135.1297256 101.7384569 135.13171089 C97.61600423 135.13587759 93.49357476 135.13382555 89.371122 135.13072467 C84.92054439 135.12846002 80.46997074 135.13195545 76.01939392 135.13470459 C67.30649761 135.13914952 58.59360991 135.13819158 49.88071326 135.13529195 C42.80094951 135.13303335 35.72118818 135.13272738 28.64142418 135.13381577 C27.63372022 135.133969 26.62601626 135.13412223 25.58777582 135.13428011 C23.54066875 135.13459983 21.49356168 135.13492405 19.44645461 135.1352527 C0.25513764 135.13810364 -18.93617455 135.13482628 -38.12749074 135.12945233 C-54.59988879 135.1249826 -71.0722798 135.12576237 -87.54467773 135.13037109 C-106.67209451 135.13572015 -125.79950711 135.13783113 -144.92692453 135.13475883 C-146.96557351 135.13444028 -149.00422249 135.13412591 -151.04287148 135.13381577 C-152.04594415 135.13366149 -153.04901683 135.13350721 -154.08248564 135.13334826 C-161.15651008 135.13248426 -168.23053187 135.13394345 -175.30455589 135.13629532 C-183.92117488 135.13909709 -192.53778476 135.13834697 -201.1544027 135.13301457 C-205.55193646 135.130383 -209.94945502 135.12936338 -214.34698868 135.13266373 C-218.37037797 135.13563767 -222.39373793 135.13401545 -226.41712455 135.12868617 C-227.87456876 135.12756673 -229.33201543 135.12814275 -230.78945806 135.13056196 C-232.76709849 135.13359352 -234.74474585 135.12989242 -236.72238445 135.12584114 C-237.82189487 135.12567879 -238.92140529 135.12551644 -240.05423421 135.12534916 C-242.81418059 135.00790705 -245.31461847 134.62703516 -248 134 C-248 133.34 -248 132.68 -248 132 C-246.87464844 131.69707031 -245.74929688 131.39414062 -244.58984375 131.08203125 C-231.59235063 127.55124985 -218.87884874 123.84884392 -206.625 118.1875 C-199.81920065 115.07214067 -194.99308385 113.97577767 -187.5625 115.5 C-179.69687756 117.0347556 -174.11625068 116.12809629 -167.12890625 112.19140625 C-160.8714909 108.68954995 -153.78187307 109.64362539 -147 111 C-137.94475847 111.95793972 -129.63297534 109.3992388 -121 107 C-117.74925631 113.50148737 -120.240477 123.98797518 -121 131 C-120.01 131 -119.02 131 -118 131 C-118.63387389 107.48270616 -118.63387389 107.48270616 -120 84 C-121.134375 83.76925781 -122.26875 83.53851562 -123.4375 83.30078125 C-134.23382712 81.00600809 -142.67092397 78.73554768 -149.87890625 69.84765625 C-151.66436251 66.90507503 -151.86078324 64.41081067 -152 61 C-148.99130078 58.07659895 -146.51144978 57.60321459 -142.36499023 57.53125 C-141.66704346 57.5415625 -140.96909668 57.551875 -140.25 57.5625 C-139.53207275 57.57152344 -138.81414551 57.58054687 -138.07446289 57.58984375 C-131.05606108 57.8195108 -126.88317334 59.08905043 -121.97265625 64.046875 C-120.23942646 65.98260095 -118.59338135 67.94852151 -117 70 C-116.46375 69.319375 -115.9275 68.63875 -115.375 67.9375 C-114.59125 66.968125 -113.8075 65.99875 -113 65 C-112.34644531 64.13375 -112.34644531 64.13375 -111.6796875 63.25 C-106.93526718 57.23521577 -101.58936285 54.16586963 -94 53 C-91.91818698 52.91017558 -89.83374364 52.86986763 -87.75 52.875 C-86.16445313 52.87113281 -86.16445313 52.87113281 -84.546875 52.8671875 C-82 53 -82 53 -81 54 C-80.26876636 60.87359621 -82.10097847 67.39352494 -86.47265625 72.83203125 C-93.32689188 79.23255862 -101.87091407 81.41102671 -111 82 C-110.44010697 78.00987629 -109.24330232 75.4744948 -106.9375 72.1875 C-106.38964844 71.39730469 -105.84179688 70.60710937 -105.27734375 69.79296875 C-104.85582031 69.20128906 -104.43429687 68.60960937 -104 68 C-108.85636296 72.33135074 -111.71045746 76.30377358 -112.22094727 82.82055664 C-112.26034185 86.21814399 -112.20809615 89.60321399 -112.125 93 C-112.09216583 95.49474006 -112.06359128 97.98953946 -112.0390625 100.484375 C-112.02020996 102.36092773 -112.02020996 102.36092773 -112.00097656 104.27539062 C-111.99949082 109.94202754 -112.22550319 115.5908658 -112.5 121.25 C-112.54785645 122.23742187 -112.59571289 123.22484375 -112.64501953 124.2421875 C-112.7582338 126.49511094 -112.87596902 128.74765025 -113 131 C-112.01 131 -111.02 131 -110 131 C-110 123.41 -110 115.82 -110 108 C-108.205625 108.226875 -106.41125 108.45375 -104.5625 108.6875 C-99.35843678 109.14002724 -95.87080431 108.57157973 -91.05859375 106.71875 C-83.87425408 104.21036575 -77.19471934 106.92604281 -70.26953125 109.125 C-67.11317061 110.12067845 -67.11317061 110.12067845 -64.19921875 110 C-63.47347656 110 -62.74773437 110 -62 110 C-60 112 -60 112 -59.76953125 114.828125 C-59.78371094 115.95734375 -59.79789063 117.0865625 -59.8125 118.25 C-59.82216797 119.92835938 -59.82216797 119.92835938 -59.83203125 121.640625 C-59.99180182 124.83603635 -60.40518647 127.85938455 -61 131 C-60.01 130.67 -59.02 130.34 -58 130 C-56.70489228 115.57090695 -56.845989 101.10601656 -56.86962891 86.63330078 C-56.87538077 83.06056894 -56.87199899 79.48791137 -56.86605644 75.91518211 C-56.86243715 73.13729291 -56.86359476 70.35942126 -56.86618423 67.58153152 C-56.86716613 65.62844035 -56.86415422 63.67534848 -56.86105347 61.72225952 C-56.86420563 60.53306915 -56.86735779 59.34387878 -56.87060547 58.11865234 C-56.87140106 57.07881195 -56.87219666 56.03897156 -56.87301636 54.96762085 C-57.00396806 51.90726606 -57.43472366 49.00796871 -58 46 C-59.03898438 45.82984375 -60.07796875 45.6596875 -61.1484375 45.484375 C-74.96387851 43.12980969 -87.04978638 39.97518187 -96.078125 28.31640625 C-104.65459505 15.32557662 -104.65459505 15.32557662 -103.5625 9.77734375 C-103.376875 9.19082031 -103.19125 8.60429687 -103 8 C-93.58274322 4.89417624 -81.5083666 3.76166393 -72.3125 8.0625 C-64.17655109 13.05850293 -59.53852713 19.73755318 -55 28 C-54.57589844 27.14277344 -54.15179687 26.28554688 -53.71484375 25.40234375 C-48.2132883 14.67733346 -42.72575994 7.18191438 -31 3 C-21.10465995 0.69905054 -10.16618443 -0.39938582 0 0 Z M-83 15 C-80.41453621 16.72364253 -77.80365917 18.30362851 -75.125 19.875 C-71.5195358 22.02562777 -68.18173357 24.24249757 -65 27 C-66.65923261 21.7206235 -69.54916607 18.31967981 -74.4375 15.6875 C-77.38058419 14.89789205 -79.96601313 14.85888433 -83 15 Z M-8 56 C-4.50640535 59.59634744 -0.88901869 62.83451967 3 66 C1.7978674 61.32503988 -0.54132113 59.53616659 -4.34375 56.91796875 C-5.97594296 55.83841102 -5.97594296 55.83841102 -8 56 Z M21.34375 57.609375 C20.7353125 58.31578125 20.126875 59.0221875 19.5 59.75 C18.8915625 60.44609375 18.283125 61.1421875 17.65625 61.859375 C16.09164757 63.88154984 14.89514999 65.60644676 14 68 C14.33 68.99 14.66 69.98 15 71 C15.38671875 70.33613281 15.7734375 69.67226563 16.171875 68.98828125 C18.86921041 64.41482889 21.50952278 60.02747372 25 56 C22.85416368 55.76770496 22.85416368 55.76770496 21.34375 57.609375 Z M-131 68 C-129.68 69.32 -128.36 70.64 -127 72 C-126.34 71.67 -125.68 71.34 -125 71 C-126.31201173 69.43750191 -126.31201173 69.43750191 -128 68 C-128.99 68 -129.98 68 -131 68 Z M-123 74 C-122 76 -122 76 -122 76 Z " fill="#4D230C" transform="translate(579,495)"/>
<path d="M0 0 C0.96421875 0.49628906 1.9284375 0.99257812 2.921875 1.50390625 C8.1314736 4.36367268 12.89977671 7.62668578 17.62182617 11.21484375 C28.80219661 19.69892911 37.79862086 22.58536119 52 23 C52.41969705 28.98068297 51.97169485 33.23396618 48 38 C42.99838187 42.80968245 37.65335568 45.24425336 31 47 C31.04640625 47.93457031 31.0928125 48.86914062 31.140625 49.83203125 C31.78029772 73.11154902 24.95667998 96.66434205 9.01953125 114.1484375 C-0.06592799 122.47823959 -9.02476061 125.5106467 -21.18359375 125.30859375 C-35.4887207 124.15188441 -48.61191643 114.5187884 -57.7265625 103.8671875 C-74.07879254 84.12830271 -79.62088584 62.32026848 -78 37 C-77.22816989 32.60277361 -76.02660596 28.96509861 -74 25 C-73.34644531 23.68902344 -73.34644531 23.68902344 -72.6796875 22.3515625 C-65.38999866 9.08671888 -53.19862798 0.7075665 -39 -4 C-26.45235237 -7.60216363 -11.39052238 -6.11540341 0 0 Z M-34.1875 43.5 C-36.94516991 45.78220958 -37.80436539 47.59244136 -39 51 C-39.55604502 57.32501205 -38.95317595 63.48148871 -37.828125 69.7109375 C-38.0890504 73.18598939 -39.59269662 74.52032516 -42 77 C-44.33629313 78.89346633 -46.77096496 80.61194243 -49.25 82.3125 C-49.8996875 82.76689453 -50.549375 83.22128906 -51.21875 83.68945312 C-52.80792899 84.79954139 -54.40334173 85.90069651 -56 87 C-51.02200014 98.21332959 -38.87859715 107.61295605 -27.9375 112.5625 C-20.66630842 115.07542381 -13.87040036 115.18848485 -6.8125 112 C5.97784391 104.72587076 13.39207913 91.79444399 17.47802734 78.03125 C20.02321416 68.769536 21.11457704 59.58280722 21 50 C16.9615943 49.9255611 12.92345707 49.87126271 8.88452148 49.83520508 C7.51205483 49.82016568 6.13963586 49.79972867 4.76733398 49.77368164 C2.78911344 49.73708779 0.81053486 49.72183302 -1.16796875 49.70703125 C-2.35672607 49.6913208 -3.5454834 49.67561035 -4.77026367 49.65942383 C-9.7017901 50.17945402 -12.18015997 52.18015997 -15.625 55.625 C-18 58 -18 58 -21 59 C-21.0825 57.80375 -21.165 56.6075 -21.25 55.375 C-21.80895834 51.05647252 -23.07504035 48.32022447 -26 45 C-29.05462754 43.47268623 -30.83222293 42.73307953 -34.1875 43.5 Z " fill="#4C220A" transform="translate(233,252)"/>
<path d="M0 0 C12.55758278 8.89342006 19.85085577 17.90417543 22.609375 33.4296875 C25.1571127 56.71601006 20.38582959 77.58127762 6.125 96.25 C-5.50056046 110.08236939 -17.88898124 120.6508019 -36.5 122.3125 C-48.15983017 122.09208733 -57.08929215 116.86708639 -65.1171875 108.8984375 C-81.13061354 91.79730705 -86.86672897 68.95327731 -86.140625 46.015625 C-86.07101562 44.52289063 -86.07101562 44.52289063 -86 43 C-86.89074219 42.89429688 -87.78148437 42.78859375 -88.69921875 42.6796875 C-92.07137522 41.98530262 -93.99712509 41.05307617 -96.8125 39.125 C-97.58207031 38.61195313 -98.35164062 38.09890625 -99.14453125 37.5703125 C-101 36 -101 36 -102 33 C-102.66 33 -103.32 33 -104 33 C-104.70492893 31.78074525 -105.38825901 30.5489894 -106.0625 29.3125 C-106.44535156 28.62800781 -106.82820312 27.94351563 -107.22265625 27.23828125 C-108.18564556 24.46545274 -107.77652732 22.78866101 -107 20 C-105.82824219 19.92523438 -104.65648437 19.85046875 -103.44921875 19.7734375 C-93.56899805 18.99804375 -86.45747399 17.48376858 -78 12 C-77.01 11.67 -76.02 11.34 -75 11 C-75 10.34 -75 9.68 -75 9 C-73.02866014 7.62464661 -71.02318078 6.29788956 -69 5 C-68.22011719 4.35804688 -67.44023438 3.71609375 -66.63671875 3.0546875 C-47.05706127 -12.20294188 -20.62930772 -13.39997554 0 0 Z M-29.25 41.6875 C-32.82595352 46.41286715 -33.23070398 50.11704849 -33 56 C-36 55 -36 55 -37.75 52.6875 C-41.45098839 48.26687498 -44.56620647 46.23658367 -50.28759766 45.68041992 C-54.17600827 45.60655078 -58.05075654 45.65037606 -61.9375 45.75 C-63.30270821 45.77009327 -64.66794493 45.78833906 -66.03320312 45.8046875 C-69.35620134 45.85165567 -72.67772992 45.91733274 -76 46 C-76.20151629 53.0464357 -75.85235848 59.55657368 -74.3125 66.4375 C-74.13315918 67.25589355 -73.95381836 68.07428711 -73.76904297 68.91748047 C-70.25077768 84.21153343 -63.24788728 96.95276404 -51 107 C-44.66535695 110.67239366 -38.68430706 112.22546113 -31.4765625 110.33984375 C-18.58291434 106.16836934 -7.4700854 97.2051281 0 86 C0.99 85.01 0.99 85.01 2 84 C1.29875 83.50371094 0.5975 83.00742187 -0.125 82.49609375 C-3.10664275 80.36114031 -6.05337952 78.18296753 -9 76 C-9.84046875 75.41476562 -10.6809375 74.82953125 -11.546875 74.2265625 C-16.82075108 70.24310291 -16.82075108 70.24310291 -17.30078125 66.9140625 C-17.04672817 64.54012388 -16.56462739 62.3191407 -16 60 C-14.8221535 53.0409803 -14.80115673 48.39768653 -18 42 C-22.0367582 39.30882787 -25.21047979 38.65785984 -29.25 41.6875 Z " fill="#4C220A" transform="translate(845,256)"/>
<path d="M0 0 C0.33 0 0.66 0 1 0 C1 1.98 1 3.96 1 6 C1.99 5.67 2.98 5.34 4 5 C4.33 3.35 4.66 1.7 5 0 C5.33 0 5.66 0 6 0 C6 2.31 6 4.62 6 7 C27.78 7.495 27.78 7.495 50 8 C50 8.66 50 9.32 50 10 C18.32 10 -13.36 10 -46 10 C-46 9.34 -46 8.68 -46 8 C-23.23 7.505 -23.23 7.505 0 7 C0 4.69 0 2.38 0 0 Z " fill="#76513B" transform="translate(517,620)"/>
<path d="M0 0 C0.33 0.66 0.66 1.32 1 2 C-1.31 2 -3.62 2 -6 2 C-6.33 3.32 -6.66 4.64 -7 6 C-6.01 6.33 -5.02 6.66 -4 7 C-6.64458379 8.32229189 -8.67761301 8.09677194 -11.625 8.0625 C-12.62789062 8.05347656 -13.63078125 8.04445313 -14.6640625 8.03515625 C-15.43492187 8.02355469 -16.20578125 8.01195312 -17 8 C-16.34 6.35 -15.68 4.7 -15 3 C-15.99 3.495 -15.99 3.495 -17 4 C-18.70702735 4.06996014 -20.41668003 4.08440154 -22.125 4.0625 C-23.03507813 4.05347656 -23.94515625 4.04445313 -24.8828125 4.03515625 C-25.58148437 4.02355469 -26.28015625 4.01195312 -27 4 C-27 3.67 -27 3.34 -27 3 C-18.09 2.01 -9.18 1.02 0 0 Z " fill="#572F17" transform="translate(794,518)"/>
<path d="M0 0 C0.87840996 3.09720845 0.99435406 4.90645403 0 8 C0.99 8.33 1.98 8.66 3 9 C1.63784946 12.62371148 0.02523511 15.91384974 -1.9375 19.25 C-2.44152344 20.12140625 -2.94554687 20.9928125 -3.46484375 21.890625 C-5 24 -5 24 -8 25 C-5.56541729 16.58782396 -2.79856214 8.29613284 0 0 Z " fill="#5B3621" transform="translate(812,743)"/>
<path d="M0 0 C0.33 0 0.66 0 1 0 C1 9.24 1 18.48 1 28 C0.67 28 0.34 28 0 28 C-0.33 26.02 -0.66 24.04 -1 22 C-1.33 22 -1.66 22 -2 22 C-2.19585135 19.60458732 -2.38192107 17.20907226 -2.5625 14.8125 C-2.61857422 14.13896484 -2.67464844 13.46542969 -2.73242188 12.77148438 C-3.00852434 8.99808399 -3.11066935 5.63794094 -2 2 C-1.34 1.34 -0.68 0.68 0 0 Z " fill="#461B03" transform="translate(464,593)"/>
<path d="M0 0 C0.33 0.99 0.66 1.98 1 3 C1.66 3 2.32 3 3 3 C1.64038652 7.07884045 -0.30291425 7.93816372 -4 10 C-6.875 10.25 -6.875 10.25 -9 10 C-8.34 8.68 -7.68 7.36 -7 6 C-6.34 6 -5.68 6 -5 6 C-5 5.34 -5 4.68 -5 4 C-3.37373596 2.61767557 -1.7074998 1.28062485 0 0 Z " fill="#4F2A17" transform="translate(730,730)"/>
<path d="M0 0 C0.66 0.33 1.32 0.66 2 1 C-2.62 5.62 -7.24 10.24 -12 15 C-12.33 14.01 -12.66 13.02 -13 12 C-11.671875 10.0625 -11.671875 10.0625 -9.75 8 C-9.12609375 7.319375 -8.5021875 6.63875 -7.859375 5.9375 C-7.24578125 5.298125 -6.6321875 4.65875 -6 4 C-5.48953125 3.443125 -4.9790625 2.88625 -4.453125 2.3125 C-3 1 -3 1 0 0 Z " fill="#532B16" transform="translate(553,513)"/>
<path d="M0 0 C0.309375 0.639375 0.61875 1.27875 0.9375 1.9375 C1.8345163 3.93610821 1.8345163 3.93610821 3 5 C1.54822555 9.11336093 -0.38124858 12.50833145 -3 16 C-3.99 16.33 -4.98 16.66 -6 17 C-5.19534869 13.26345828 -3.82425115 9.80577218 -2.4375 6.25 C-1.98246094 5.07953125 -1.52742187 3.9090625 -1.05859375 2.703125 C-0.53458984 1.36507812 -0.53458984 1.36507812 0 0 Z " fill="#552D17" transform="translate(908,750)"/>
<path d="M0 0 C2.475 0.495 2.475 0.495 5 1 C5.50559908 2.43554025 6.0042749 3.8735202 6.5 5.3125 C6.7784375 6.11300781 7.056875 6.91351562 7.34375 7.73828125 C8 10 8 10 8 13 C7.34 13 6.68 13 6 13 C4.99491199 11.21118264 3.99607264 9.41885304 3 7.625 C2.1646875 6.12839844 2.1646875 6.12839844 1.3125 4.6015625 C0 2 0 2 0 0 Z " fill="#6D4A34" transform="translate(706,544)"/>
<path d="M0 0 C-0.66 3.63 -1.32 7.26 -2 11 C-2.66 11 -3.32 11 -4 11 C-5.60725635 7.78548731 -5.05748185 4.56387464 -5 1 C-3 0 -3 0 0 0 Z " fill="#59311B" transform="translate(705,536)"/>
<path d="M0 0 C1.38087404 3.83576122 0.94284862 7.08355188 0 11 C-2.05078125 12.2109375 -2.05078125 12.2109375 -4 13 C-3.52140759 11.39566191 -3.04210442 9.79153584 -2.5625 8.1875 C-2.29566406 7.29417969 -2.02882813 6.40085937 -1.75390625 5.48046875 C-1.19612127 3.64526945 -0.60655425 1.81966274 0 0 Z " fill="#603B26" transform="translate(808,755)"/>
<path d="M0 0 C-0.33 2.31 -0.66 4.62 -1 7 C-1.66 5.68 -2.32 4.36 -3 3 C-5.31 4.65 -7.62 6.3 -10 8 C-10.66 7.67 -11.32 7.34 -12 7 C-10.56967163 5.82455195 -9.13046758 4.65989738 -7.6875 3.5 C-6.88699219 2.8503125 -6.08648437 2.200625 -5.26171875 1.53125 C-3 0 -3 0 0 0 Z " fill="#5E361E" transform="translate(493,688)"/>
<path d="M0 0 C-0.56371414 3.26954202 -1.49962266 4.82575883 -4 7 C-4 5.68 -4 4.36 -4 3 C-5.65 3 -7.3 3 -9 3 C-5.87496336 0.91664224 -3.72863529 0 0 0 Z " fill="#643D25" transform="translate(505,656)"/>
<path d="M0 0 C1.65 0 3.3 0 5 0 C5.33 1.32 5.66 2.64 6 4 C6.66 4 7.32 4 8 4 C8 4.66 8 5.32 8 6 C4.74456771 5.65120368 3.98126893 4.97866739 1.75 2.4375 C1.1725 1.633125 0.595 0.82875 0 0 Z " fill="#553F32" transform="translate(129,762)"/>
<path d="M0 0 C0.33 0.66 0.66 1.32 1 2 C4.3 2 7.6 2 11 2 C7.96474514 4.02350324 6.80573798 4.32124018 3.3125 4.625 C2.50425781 4.69976563 1.69601562 4.77453125 0.86328125 4.8515625 C-0.05904297 4.92503906 -0.05904297 4.92503906 -1 5 C-0.67 3.35 -0.34 1.7 0 0 Z " fill="#5A3520" transform="translate(469,572)"/>
<path d="M0 0 C0.33 0 0.66 0 1 0 C1.33 3.63 1.66 7.26 2 11 C0.68 10.34 -0.64 9.68 -2 9 C-1.855625 8.443125 -1.71125 7.88625 -1.5625 7.3125 C-0.97230872 4.88615805 -0.476571 2.45093655 0 0 Z " fill="#471C07" transform="translate(708,535)"/>
<path d="M0 0 C0.66 0 1.32 0 2 0 C1.4409112 3.24271506 0.5867822 4.93057424 -2 7 C-2.66 7 -3.32 7 -4 7 C-2.92598892 4.08482708 -2.22189824 2.22189824 0 0 Z " fill="#58311C" transform="translate(492,717)"/>
<path d="M0 0 C-0.33 1.32 -0.66 2.64 -1 4 C-3.31 3.67 -5.62 3.34 -8 3 C-8 2.34 -8 1.68 -8 1 C-5.29120665 -0.35439668 -2.99066732 -0.06501451 0 0 Z " fill="#59311B" transform="translate(339,626)"/>
<path d="M0 0 C0.66 0.33 1.32 0.66 2 1 C-0.31 3.31 -2.62 5.62 -5 8 C-5.99 7.67 -6.98 7.34 -8 7 C-5.36 4.69 -2.72 2.38 0 0 Z " fill="#542D17" transform="translate(177,256)"/>
<path d="M0 0 C0.66 0.99 1.32 1.98 2 3 C1.3125 5.625 1.3125 5.625 0 8 C-0.99 8.33 -1.98 8.66 -3 9 C-2.30058404 5.85262818 -1.23921302 2.97411124 0 0 Z " fill="#5D3A25" transform="translate(905,758)"/>
<path d="M0 0 C0.66 0.33 1.32 0.66 2 1 C1.125 5.75 1.125 5.75 0 8 C-0.66 8 -1.32 8 -2 8 C-1.125 1.125 -1.125 1.125 0 0 Z " fill="#4A210A" transform="translate(810,754)"/>
<path d="M0 0 C0.33 0.99 0.66 1.98 1 3 C-1.97 5.475 -1.97 5.475 -5 8 C-5 5 -5 5 -2.5 2.3125 C-1.675 1.549375 -0.85 0.78625 0 0 Z " fill="#532B14" transform="translate(480,696)"/>
<path d="M0 0 C0.33 0 0.66 0 1 0 C0.125 7.75 0.125 7.75 -1 10 C-1.99 9.67 -2.98 9.34 -4 9 C-4 8.01 -4 7.02 -4 6 C-3.01 6 -2.02 6 -1 6 C-0.67 4.02 -0.34 2.04 0 0 Z " fill="#6E4833" transform="translate(360,398)"/>
<path d="M0 0 C0.33 0 0.66 0 1 0 C0.67 2.31 0.34 4.62 0 7 C-1.32 7.33 -2.64 7.66 -4 8 C-4 6.35 -4 4.7 -4 3 C-3.01 3 -2.02 3 -1 3 C-0.67 2.01 -0.34 1.02 0 0 Z " fill="#6A4630" transform="translate(330,523)"/>
<path d="M0 0 C-0.61875 0.4125 -1.2375 0.825 -1.875 1.25 C-4.06768281 3.05573879 -4.92788417 4.4090534 -6 7 C-6.33 5.02 -6.66 3.04 -7 1 C-3.375 -1.125 -3.375 -1.125 0 0 Z " fill="#5A3621" transform="translate(482,503)"/>
<path d="M0 0 C1.125 3.75 1.125 3.75 0 6 C1.65 5.67 3.3 5.34 5 5 C1.375 8 1.375 8 -2 8 C-1.47731534 5.23723823 -0.89130413 2.6739124 0 0 Z " fill="#623B24" transform="translate(363,400)"/>
<path d="M0 0 C0.66 0 1.32 0 2 0 C2.66 1.65 3.32 3.3 4 5 C2.35 5 0.7 5 -1 5 C-0.67 3.35 -0.34 1.7 0 0 Z " fill="#562F19" transform="translate(129,757)"/>
<path d="M0 0 C1.9375 0.625 1.9375 0.625 4 2 C4.75 5.125 4.75 5.125 5 8 C4.34 8 3.68 8 3 8 C0 2.25 0 2.25 0 0 Z " fill="#5C3620" transform="translate(706,544)"/>
<path d="M0 0 C2.4375 0.75 2.4375 0.75 5 2 C5.8125 4.125 5.8125 4.125 6 6 C4.125 5.8125 4.125 5.8125 2 5 C0.75 2.4375 0.75 2.4375 0 0 Z " fill="#623C29" transform="translate(349,416)"/>
</svg>
